<?xml version="1.0" encoding="UTF-8"?>
<svg width="40px" height="40px" viewBox="0 0 40 40" version="1.1" xmlns="http://www.w3.org/2000/svg" xmlns:xlink="http://www.w3.org/1999/xlink">
    <title>GestiónTiempo_40x40</title>
    <g id="GestiónTiempo_40x40" stroke="none" stroke-width="1" fill="none" fill-rule="evenodd">
        <g id="shutterstock_1262318137" transform="translate(-1.000000, 0.000000)">
            <path d="M7.76989474,37.3834737 L7.76989474,37.3834737 C7.26778947,36.8813684 7.26778947,36.0596842 7.76989474,35.5575789 L12.8688421,30.4586316 C13.3709474,29.9565263 14.1926316,29.9565263 14.6947368,30.4586316 C15.1968421,30.9608421 15.1968421,31.7825263 14.6947368,32.2845263 L9.59589474,37.3834737 C9.09368421,37.8855789 8.272,37.8855789 7.76989474,37.3834737" id="Fill-21" fill="#BF675B"></path>
            <path d="M13.7817895,30.3982105 C13.5324211,30.3982105 13.2830526,30.4931579 13.0932632,30.6829474 L7.99431579,35.7818947 C7.61473684,36.1616842 7.61473684,36.7794737 7.99431579,37.1590526 C8.37389474,37.5383158 8.99168421,37.5387368 9.37147368,37.1590526 L14.4704211,32.0601053 C14.85,31.6806316 14.85,31.0627368 14.4703158,30.6829474 C14.2805263,30.4931579 14.0310526,30.3982105 13.7817895,30.3982105 Z M8.68294737,38.0781053 C8.27094737,38.0781053 7.85915789,37.9214737 7.54557895,37.6077895 C6.91852632,36.9806316 6.91842105,35.9604211 7.54547368,35.3330526 L12.6444211,30.2342105 C13.2715789,29.6069474 14.292,29.6069474 14.9191579,30.2342105 C15.5462105,30.8615789 15.5461053,31.8817895 14.9191579,32.5089474 L9.82021053,37.6077895 C9.50673684,37.9212632 9.09473684,38.0781053 8.68294737,38.0781053 L8.68294737,38.0781053 Z" id="Fill-22" fill="#0A0B09"></path>
            <path d="M27.0945263,30.4586316 C27.5967368,29.9565263 28.4184211,29.9565263 28.9205263,30.4586316 L34.0193684,35.5575789 C34.5214737,36.0596842 34.5214737,36.8813684 34.0193684,37.3833684 C33.5172632,37.8855789 32.6955789,37.8855789 32.1934737,37.3833684 L27.0945263,32.2845263 C26.5925263,31.7825263 26.5925263,30.9608421 27.0945263,30.4586316" id="Fill-23" fill="#BF675B"></path>
            <path d="M27.3189474,30.6829474 C26.9393684,31.0627368 26.9393684,31.6806316 27.3189474,32.0601053 L32.4178947,37.1590526 C32.6007368,37.3418947 32.8453684,37.4425263 33.1065263,37.4425263 C33.3674737,37.4425263 33.6121053,37.3418947 33.7950526,37.1590526 C34.1745263,36.7794737 34.1745263,36.1616842 33.7950526,35.7818947 L28.6961053,30.6829474 C28.5132632,30.5001053 28.2686316,30.3994737 28.0073684,30.3994737 C27.7465263,30.3994737 27.5017895,30.5001053 27.3189474,30.6829474 M33.1063158,38.0783158 C32.6945263,38.0783158 32.2826316,37.9214737 31.9690526,37.6077895 L26.8702105,32.5089474 C26.2430526,31.8817895 26.2430526,30.8615789 26.8702105,30.2342105 C27.4972632,29.6069474 28.5173684,29.6069474 29.1449474,30.2342105 L34.2437895,35.3330526 C34.8708421,35.9604211 34.8708421,36.9806316 34.2437895,37.6077895 C33.9301053,37.9214737 33.5183158,38.0783158 33.1063158,38.0783158" id="Fill-24" fill="#0A0B09"></path>
            <polygon id="Fill-25" fill="#BF675B" points="20.0443158 5.83726316 21.6841053 5.83726316 21.6841053 2.29326316 20.0443158 2.29326316"></polygon>
            <path d="M20.3616842,5.51989474 L21.3666316,5.51989474 L21.3666316,2.61063158 L20.3616842,2.61063158 L20.3616842,5.51989474 Z M21.6841053,6.15473684 L20.0443158,6.15473684 C19.8689474,6.15473684 19.7269474,6.01263158 19.7269474,5.83736842 L19.7269474,2.29326316 C19.7269474,2.118 19.8689474,1.97589474 20.0443158,1.97589474 L21.6841053,1.97589474 C21.8592632,1.97589474 22.0014737,2.118 22.0014737,2.29326316 L22.0014737,5.83736842 C22.0014737,6.01263158 21.8592632,6.15473684 21.6841053,6.15473684 L21.6841053,6.15473684 Z" id="Fill-26" fill="#0A0B09"></path>
            <path d="M13.8111579,12.7576842 C13.5306316,13.0383158 13.0714737,13.0383158 12.7908421,12.7576842 L6.82926316,6.79610526 C6.54863158,6.51557895 6.54863158,6.05642105 6.82926316,5.77578947 C7.10989474,5.49515789 7.56905263,5.49515789 7.84968421,5.77578947 L13.8111579,11.7373684 C14.0917895,12.0178947 14.0917895,12.4770526 13.8111579,12.7576842" id="Fill-27" fill="#BF675B"></path>
            <path d="M7.33947368,5.88189474 C7.23589474,5.88189474 7.13252632,5.92136842 7.05368421,6.00010526 C6.89610526,6.15768421 6.89610526,6.41410526 7.05368421,6.57168421 L13.0152632,12.5332632 C13.1729474,12.6907368 13.4292632,12.6909474 13.5868421,12.5332632 C13.7444211,12.3756842 13.7444211,12.1193684 13.5868421,11.9616842 L7.62526316,6.00010526 C7.54631579,5.92136842 7.44294737,5.88189474 7.33947368,5.88189474 M13.3010526,13.286 C13.0349474,13.286 12.7689474,13.1847368 12.5664211,12.9821053 L6.60494737,7.02042105 C6.19978947,6.61547368 6.19978947,5.95642105 6.60494737,5.55136842 C7.00989474,5.14621053 7.66894737,5.14621053 8.074,5.55136842 L14.0355789,11.5128421 C14.4407368,11.918 14.4407368,12.5770526 14.0355789,12.9821053 C13.8331579,13.1847368 13.5671579,13.286 13.3010526,13.286" id="Fill-28" fill="#0A0B09"></path>
            <path d="M27.9171579,12.7576842 C27.6366316,12.4770526 27.6366316,12.0178947 27.9171579,11.7373684 L33.8788421,5.77578947 C34.1593684,5.49515789 34.6185263,5.49515789 34.8991579,5.77578947 C35.1796842,6.05642105 35.1796842,6.51557895 34.8991579,6.79610526 L28.9374737,12.7576842 C28.6569474,13.0383158 28.1977895,13.0383158 27.9171579,12.7576842" id="Fill-29" fill="#BF675B"></path>
            <path d="M34.3888421,5.88189474 C34.2855789,5.88189474 34.1821053,5.92126316 34.1030526,6.00010526 L28.1415789,11.9616842 C27.9838947,12.1193684 27.9838947,12.3756842 28.1415789,12.5332632 C28.2989474,12.6907368 28.5555789,12.6907368 28.7130526,12.5332632 L34.6748421,6.57168421 C34.8322105,6.41410526 34.8322105,6.15768421 34.6748421,6.00010526 C34.5958947,5.92126316 34.4924211,5.88189474 34.3888421,5.88189474 M28.4273684,13.286 C28.1611579,13.286 27.8952632,13.1847368 27.6927368,12.9821053 C27.2875789,12.5770526 27.2875789,11.918 27.6927368,11.5128421 L33.6543158,5.55136842 C34.0594737,5.146 34.7188421,5.14631579 35.1235789,5.55136842 C35.5285263,5.95642105 35.5285263,6.61547368 35.1235789,7.02042105 L29.1617895,12.9821053 C28.9593684,13.1846316 28.6932632,13.286 28.4273684,13.286" id="Fill-30" fill="#0A0B09"></path>
            <path d="M36.6625263,20.9744211 C36.6625263,29.6994737 29.5893684,36.7727368 20.8642105,36.7727368 C12.1390526,36.7727368 5.06589474,29.6994737 5.06589474,20.9744211 C5.06589474,12.2492632 12.1390526,5.17610526 20.8642105,5.17610526 C29.5893684,5.17610526 36.6625263,12.2492632 36.6625263,20.9744211" id="Fill-31" fill="#E9887A"></path>
            <path d="M20.8642105,5.49357895 C12.328,5.49357895 5.38336842,12.4382105 5.38336842,20.9744211 C5.38336842,29.5106316 12.328,36.4552632 20.8642105,36.4552632 C29.4005263,36.4552632 36.3451579,29.5106316 36.3451579,20.9744211 C36.3451579,12.4382105 29.4005263,5.49357895 20.8642105,5.49357895 M20.8642105,37.09 C11.9778947,37.09 4.74852632,29.8606316 4.74852632,20.9744211 C4.74852632,12.0881053 11.9778947,4.85873684 20.8642105,4.85873684 C29.7505263,4.85873684 36.98,12.0881053 36.98,20.9744211 C36.98,29.8606316 29.7505263,37.09 20.8642105,37.09" id="Fill-32" fill="#0A0B09"></path>
            <path d="M22.1407368,36.4031579 C29.2350526,34.8509474 34.5466316,28.5345263 34.5466316,20.9744211 C34.5466316,13.4142105 29.2356842,7.098 22.1414737,5.54568421 C30.0827368,6.19694737 36.3451579,12.868 36.3451579,20.9744211 C36.3451579,29.0807368 30.0821053,35.7518947 22.1407368,36.4031579" id="Fill-33" fill="#E36B5E"></path>
            <path d="M20.8642105,36.7727368 C20.5083158,36.7727368 20.1563158,36.7566316 19.8063158,36.7334737 C20.6021053,36.6807368 21.3814737,36.5692632 22.1407368,36.4031579 C30.0821053,35.7518947 36.3451579,29.0807368 36.3451579,20.9744211 C36.3451579,12.868 30.0827368,6.19694737 22.1414737,5.54568421 C21.3821053,5.37957895 20.6021053,5.26789474 19.8063158,5.21526316 C20.1563158,5.19210526 20.5083158,5.17610526 20.8642105,5.17610526 C29.5893684,5.17610526 36.6625263,12.2492632 36.6625263,20.9744211 C36.6625263,29.6994737 29.5893684,36.7727368 20.8642105,36.7727368" id="Fill-34" fill="#0A0B09"></path>
            <path d="M33.0661053,20.9744211 C33.0661053,27.7132632 27.6031579,33.1763158 20.8642105,33.1763158 C14.1252632,33.1763158 8.66231579,27.7132632 8.66231579,20.9744211 C8.66231579,14.2354737 14.1252632,8.77242105 20.8642105,8.77242105 C27.6031579,8.77242105 33.0661053,14.2354737 33.0661053,20.9744211" id="Fill-35" fill="#E8F5F4"></path>
            <path d="M20.8642105,9.08978947 C14.3109474,9.08978947 8.97968421,14.4211579 8.97968421,20.9744211 C8.97968421,27.5276842 14.3109474,32.8589474 20.8642105,32.8589474 C27.4173684,32.8589474 32.7486316,27.5276842 32.7486316,20.9744211 C32.7486316,14.4211579 27.4173684,9.08978947 20.8642105,9.08978947 M20.8642105,33.4936842 C13.9610526,33.4936842 8.34484211,27.8776842 8.34484211,20.9744211 C8.34484211,14.0712632 13.9610526,8.45505263 20.8642105,8.45505263 C27.7673684,8.45505263 33.3834737,14.0712632 33.3834737,20.9744211 C33.3834737,27.8776842 27.7673684,33.4936842 20.8642105,33.4936842" id="Fill-36" fill="#0A0B09"></path>
            <path d="M21.6077895,32.836 C26.9669474,31.5492632 30.9502105,26.7283158 30.9502105,20.9744211 C30.9502105,15.2205263 26.9671579,10.3995789 21.6081053,9.11284211 C27.8157895,9.49831579 32.7486316,14.6711579 32.7486316,20.9744211 C32.7486316,27.2781053 27.8161053,32.4510526 21.6077895,32.836" id="Fill-37" fill="#CFEAE9"></path>
            <path d="M20.8642105,33.1763158 C20.5074737,33.1763158 20.1552632,33.1576842 19.8063158,33.1276842 C20.4209474,33.0748421 21.0225263,32.9765263 21.6077895,32.836 C27.8161053,32.4510526 32.7486316,27.2781053 32.7486316,20.9744211 C32.7486316,14.6711579 27.8157895,9.49831579 21.6081053,9.11284211 C21.0228421,8.97231579 20.4209474,8.87389474 19.8063158,8.82105263 C20.1552632,8.79105263 20.5074737,8.77242105 20.8642105,8.77242105 C27.6031579,8.77242105 33.0661053,14.2354737 33.0661053,20.9744211 C33.0661053,27.7132632 27.6031579,33.1763158 20.8642105,33.1763158" id="Fill-38" fill="#0A0B09"></path>
            <path d="M4.17305263,2.99968421 C1.68989474,5.48284211 1.68989474,9.50884211 4.17305263,11.992 L13.1653684,2.99968421 C10.6822105,0.516526316 6.65621053,0.516526316 4.17305263,2.99968421" id="Fill-39" fill="#E9887A"></path>
            <path d="M8.66915789,1.45473684 C7.05547368,1.45473684 5.53852632,2.08315789 4.39736842,3.22410526 C2.11736842,5.50421053 2.04452632,9.16873684 4.17884211,11.5373684 L12.7107368,3.00557895 C11.5996842,2.00305263 10.1766316,1.45473684 8.66915789,1.45473684 M4.17294737,12.3094737 C4.08884211,12.3094737 4.00810526,12.276 3.94863158,12.2165263 C1.34568421,9.61347368 1.34578947,5.37821053 3.94863158,2.77536842 C5.20957895,1.51442105 6.886,0.82 8.66915789,0.82 C10.4524211,0.82 12.1289474,1.51442105 13.3897895,2.77536842 C13.5136842,2.89936842 13.5136842,3.10031579 13.3897895,3.22410526 L4.39736842,12.2165263 C4.33789474,12.276 4.25715789,12.3094737 4.17294737,12.3094737" id="Fill-40" fill="#0A0B09"></path>
            <path d="M4.17884211,11.5373684 C3.90757895,11.2364211 3.672,10.9145263 3.47210526,10.5771579 L11.0495789,2.99968421 C10.3203158,2.27052632 9.45789474,1.75652632 8.54073684,1.45610526 C8.58336842,1.45515789 8.62631579,1.45473684 8.66915789,1.45473684 C10.1766316,1.45473684 11.5996842,2.00305263 12.7107368,3.00557895 L4.17884211,11.5373684" id="Fill-41" fill="#E36B5E"></path>
            <path d="M4.17305263,11.992 C3.80852632,11.6274737 3.49905263,11.2290526 3.24147368,10.8076842 L3.47210526,10.5771579 C3.672,10.9145263 3.90757895,11.2364211 4.17884211,11.5373684 L12.7107368,3.00557895 C11.5996842,2.00305263 10.1766316,1.45473684 8.66915789,1.45473684 C8.62631579,1.45473684 8.58336842,1.45515789 8.54073684,1.45610526 C8.236,1.35621053 7.92526316,1.28 7.61126316,1.22736842 C7.962,1.16842105 8.31652632,1.13905263 8.67115789,1.13905263 C10.2977895,1.13905263 11.9243158,1.75863158 13.1653684,2.99968421 L4.17305263,11.992" id="Fill-42" fill="#0A0B09"></path>
            <path d="M37.5552632,2.99968421 C35.0722105,0.516526316 31.0462105,0.516526316 28.5630526,2.99968421 L37.5552632,11.992 C40.0385263,9.50884211 40.0385263,5.48284211 37.5552632,2.99968421" id="Fill-43" fill="#E9887A"></path>
            <path d="M29.0175789,3.00557895 L37.5495789,11.5374737 C38.5518947,10.4264211 39.1003158,9.00326316 39.1003158,7.49589474 C39.1003158,5.88221053 38.4718947,4.36515789 37.3310526,3.22410526 C35.0506316,0.943894737 31.3864211,0.871157895 29.0175789,3.00557895 M37.5553684,12.3094737 C37.4742105,12.3094737 37.3929474,12.2785263 37.3310526,12.2165263 L28.3386316,3.22410526 C28.2146316,3.10031579 28.2146316,2.89926316 28.3386316,2.77536842 C30.9416842,0.172315789 35.1767368,0.172315789 37.7797895,2.77536842 C39.0408421,4.03621053 39.7350526,5.71263158 39.7350526,7.49589474 C39.7350526,9.27905263 39.0408421,10.9555789 37.7797895,12.2165263 C37.7177895,12.2785263 37.6366316,12.3094737 37.5553684,12.3094737" id="Fill-44" fill="#0A0B09"></path>
            <path d="M37.5495789,11.5374737 L36.5350526,10.5230526 C37.8413684,8.11273684 37.4770526,5.03726316 35.4394737,2.99968421 C34.7125263,2.27273684 33.8531579,1.75957895 32.9389474,1.45873684 C32.9790526,1.458 33.0191579,1.45757895 33.0592632,1.45757895 C34.6062105,1.45757895 36.1532632,2.04642105 37.3310526,3.22410526 C38.4718947,4.36515789 39.1003158,5.88221053 39.1003158,7.49589474 C39.1003158,9.00326316 38.5518947,10.4264211 37.5495789,11.5374737" id="Fill-45" fill="#E36B5E"></path>
            <path d="M37.5552632,11.992 L36.3710526,10.8076842 C36.4283158,10.714 36.4830526,10.6189474 36.5350526,10.5230526 L37.5495789,11.5374737 C38.5518947,10.4264211 39.1003158,9.00326316 39.1003158,7.49589474 C39.1003158,5.88221053 38.4718947,4.36515789 37.3310526,3.22410526 C36.1532632,2.04642105 34.6062105,1.45757895 33.0592632,1.45757895 C33.0191579,1.45757895 32.9790526,1.458 32.9389474,1.45873684 C32.6315789,1.35757895 32.3181053,1.28052632 32.0012632,1.22726316 C32.352,1.16842105 32.7064211,1.13894737 33.0611579,1.13894737 C34.6876842,1.13894737 36.3142105,1.75863158 37.5552632,2.99968421 C40.0385263,5.48284211 40.0385263,9.50884211 37.5552632,11.992" id="Fill-46" fill="#0A0B09"></path>
            <path d="M23.3150526,3.16610526 L18.4133684,3.16610526 C17.9188421,3.16610526 17.5141053,2.76136842 17.5141053,2.26684211 C17.5141053,1.77221053 17.9188421,1.36757895 18.4133684,1.36757895 L23.3150526,1.36757895 C23.8095789,1.36757895 24.2143158,1.77221053 24.2143158,2.26684211 C24.2143158,2.76136842 23.8095789,3.16610526 23.3150526,3.16610526" id="Fill-47" fill="#E9887A"></path>
            <path d="M18.4132632,1.68494737 C18.0925263,1.68494737 17.8314737,1.946 17.8314737,2.26684211 C17.8314737,2.58768421 18.0925263,2.84873684 18.4132632,2.84873684 L23.3149474,2.84873684 C23.6358947,2.84873684 23.8968421,2.58768421 23.8968421,2.26684211 C23.8968421,1.946 23.6358947,1.68494737 23.3149474,1.68494737 L18.4132632,1.68494737 Z M23.3149474,3.48347368 L18.4132632,3.48347368 C17.7425263,3.48347368 17.1967368,2.93768421 17.1967368,2.26684211 C17.1967368,1.596 17.7425263,1.05021053 18.4132632,1.05021053 L23.3149474,1.05021053 C23.9858947,1.05021053 24.5315789,1.596 24.5315789,2.26684211 C24.5315789,2.93768421 23.9858947,3.48347368 23.3149474,3.48347368 L23.3149474,3.48347368 Z" id="Fill-48" fill="#0A0B09"></path>
        </g>
    </g>
</svg>