<?xml version="1.0" encoding="UTF-8"?>
<svg width="40px" height="40px" viewBox="0 0 40 40" version="1.1" xmlns="http://www.w3.org/2000/svg" xmlns:xlink="http://www.w3.org/1999/xlink">
    <title>GestionEstres_40x40</title>
    <g id="GestionEstres_40x40" stroke="none" stroke-width="1" fill="none" fill-rule="evenodd">
        <g id="Group-17" transform="translate(3.000000, 0.489422)">
            <path d="M13.0153041,0.0742246575 C9.73066122,0.327991781 6.79503878,1.03640274 5.14517143,2.11415616 C1.66745714,4.38523836 0.191579592,9.49744384 0.0729265306,14.6598685 L8.27265102,14.0241151 L13.0153041,0.0742246575 Z" id="Fill-1" fill="#ED1C24"></path>
            <path d="M13.0153041,0.0742246575 C9.73066122,0.327991781 6.79503878,1.03640274 5.14517143,2.11415616 C1.66745714,4.38523836 0.191579592,9.49744384 0.0729265306,14.6598685 L8.27265102,14.0241151 L13.0153041,0.0742246575 Z" id="Stroke-3" stroke="#000000" stroke-width="0.75"></path>
            <path d="M30.7171092,25.8426288 L32.8530378,25.6609849 C33.2704051,25.5931356 33.6284459,25.3201356 33.8123235,24.9292452 C33.9955071,24.5399575 33.9824969,24.0822863 33.7745071,23.7040397 L30.5373949,16.5050671 C30.5373949,15.1445192 30.3120582,13.7364233 29.8674561,12.3493411 L17.8397827,13.2821356 L9.89367041,24.2443411 L13.3349561,14.1125329 L8.24258878,14.1125329 L8.27259898,14.024026 L0.0728744898,14.6599575 C-0.0749214286,21.0873 1.8821602,27.5924644 4.70780306,28.7893548 L4.64309898,31.5291493 L30.3531704,29.6856425 C30.5868337,28.2346288 30.6907418,26.7891356 30.7171092,25.8426288" id="Fill-5" fill="#F7931E"></path>
            <path d="M30.7171092,25.8426288 L32.8530378,25.6609849 C33.2704051,25.5931356 33.6284459,25.3201356 33.8123235,24.9292452 C33.9955071,24.5399575 33.9824969,24.0822863 33.7745071,23.7040397 L30.5373949,16.5050671 C30.5373949,15.1445192 30.3120582,13.7364233 29.8674561,12.3493411 L17.8397827,13.2821356 L9.89367041,24.2443411 L13.3349561,14.1125329 L8.24258878,14.1125329 L8.27259898,14.024026 L0.0728744898,14.6599575 C-0.0749214286,21.0873 1.8821602,27.5924644 4.70780306,28.7893548 L4.64309898,31.5291493 L30.3531704,29.6856425 C30.5868337,28.2346288 30.6907418,26.7891356 30.7171092,25.8426288 Z" id="Stroke-7" stroke="#000000" stroke-width="0.75"></path>
            <path d="M4.64308163,31.5290959 L4.54385714,35.730589 L21.1740204,38.9022329 L21.575949,34.0136986 C23.9113673,34.759863 27.4725204,35.2228767 28.5109082,34.4254247 C29.4641224,33.6922603 30.0317143,31.6834932 30.3531531,29.6857671 L4.64308163,31.5290959 Z" id="Fill-9" fill="#22B573"></path>
            <path d="M4.64308163,31.5290959 L4.54385714,35.730589 L21.1740204,38.9022329 L21.575949,34.0136986 C23.9113673,34.759863 27.4725204,35.2228767 28.5109082,34.4254247 C29.4641224,33.6922603 30.0317143,31.6834932 30.3531531,29.6857671 L4.64308163,31.5290959 Z" id="Stroke-11" stroke="#000000" stroke-width="0.75"></path>
            <path d="M27.7106592,8.09221507 C29.0135878,7.16957123 30.2304755,6.04480411 29.289751,4.43458493 C27.8381592,1.9489137 23.7245061,0.586228767 19.2113531,0.137639726 L15.8791796,8.26940685 L21.4732204,8.26940685 L17.8397306,13.2820644 L29.8674041,12.3494479 C29.3959143,10.8788452 28.6775776,9.43210548 27.7106592,8.09221507" id="Fill-13" fill="#ED1C24"></path>
            <path d="M27.7106592,8.09221507 C29.0135878,7.16957123 30.2304755,6.04480411 29.289751,4.43458493 C27.8381592,1.9489137 23.7245061,0.586228767 19.2113531,0.137639726 L15.8791796,8.26940685 L21.4732204,8.26940685 L17.8397306,13.2820644 L29.8674041,12.3494479 C29.3959143,10.8788452 28.6775776,9.43210548 27.7106592,8.09221507 Z" id="Stroke-15" stroke="#000000" stroke-width="0.75"></path>
        </g>
    </g>
</svg>