<?xml version="1.0" encoding="UTF-8"?>
<svg width="40px" height="40px" viewBox="0 0 40 40" version="1.1" xmlns="http://www.w3.org/2000/svg" xmlns:xlink="http://www.w3.org/1999/xlink">
    <title>HabilidadesComunicacion_40x40</title>
    <g id="HabilidadesComunicacion_40x40" stroke="none" stroke-width="1" fill="none" fill-rule="evenodd">
        <g id="shutterstock_329549618">
            <path d="M17.8305385,5.49707692 C16.7939231,6.27569231 15.5101538,6.74223077 14.112,6.74223077 C13.7998462,6.74223077 13.494,6.71138462 13.1928462,6.66653846 C13.2916923,4.84361538 14.2031538,3.24315385 15.5780769,2.21730769 C15.5904615,2.26061538 15.6012308,2.30384615 15.6136154,2.34715385 C15.626,2.38884615 15.6414615,2.42746154 15.6553846,2.46907692 C15.6954615,2.59423077 15.7418462,2.71784615 15.7897692,2.83992308 C15.8143846,2.89861538 15.8360769,2.95730769 15.8623077,3.01446154 C15.918,3.14423077 15.9797692,3.26938462 16.0430769,3.393 C16.0833077,3.46869231 16.1233846,3.54130769 16.1650769,3.61546154 C16.2036923,3.68184615 16.2439231,3.74669231 16.2856154,3.81169231 C16.366,3.94292308 16.4525385,4.06961538 16.5436154,4.19323077 C16.5698462,4.22876923 16.5961538,4.26423077 16.6223846,4.29976923 C16.7522308,4.46976923 16.8896154,4.63192308 17.0364615,4.78638462 C17.0858462,4.839 17.1353077,4.89 17.1863077,4.93938462 C17.3886923,5.14023077 17.6033846,5.32561538 17.8305385,5.49707692" id="Fill-35" fill="#49979E"></path>
            <path d="M24.957,5.71953846 C23.9791538,6.36530769 22.8081538,6.74223077 21.549,6.74223077 C20.8508462,6.74223077 20.1802308,6.62638462 19.5545385,6.41161538 C18.9289231,6.19692308 18.3495385,5.88638462 17.8305385,5.49707692 C17.6033846,5.32561538 17.3886923,5.14023077 17.1863077,4.93938462 C17.1353077,4.88838462 17.0858462,4.83738462 17.0364615,4.78638462 C16.8896154,4.63192308 16.7522308,4.46976923 16.6223846,4.29976923 C16.5961538,4.26423077 16.5698462,4.22876923 16.5436154,4.19323077 C16.4525385,4.06961538 16.366,3.94292308 16.2856154,3.81169231 C16.2439231,3.74669231 16.2036923,3.68184615 16.1650769,3.61546154 C16.1233846,3.54130769 16.0833077,3.46869231 16.0430769,3.393 C15.9797692,3.26938462 15.918,3.14423077 15.8623077,3.01446154 C15.8360769,2.95730769 15.8143846,2.89861538 15.7897692,2.83992308 C15.7418462,2.71784615 15.6954615,2.59423077 15.6553846,2.46907692 C15.6414615,2.42746154 15.626,2.38884615 15.6136154,2.34715385 C15.6012308,2.30384615 15.5919231,2.259 15.5796154,2.21423077 C16.573,1.47423077 17.8011538,1.02930769 19.1359231,1.02930769 C21.9909231,1.02930769 24.3745385,3.03923077 24.957,5.71953846" id="Fill-36" fill="#5CBDC5"></path>
            <path d="M21.4593846,15.8616923 L20.8013077,17.5486154 L17.5586154,17.5486154 L16.9005385,15.8631538 C17.0163846,15.9094615 17.1353077,15.9527692 17.2543077,15.9929231 C17.3006154,16.0083846 17.3453846,16.0238462 17.3916923,16.0376923 C17.4380769,16.0516923 17.4844615,16.0655385 17.5308462,16.0779231 C17.5771538,16.0917692 17.6234615,16.1041538 17.6698462,16.115 C17.7640769,16.1396923 17.8583077,16.1597692 17.9540769,16.1798462 C18.0453077,16.1983846 18.1363846,16.2138462 18.2291538,16.2293077 C18.5240769,16.2741538 18.8269231,16.2973077 19.1359231,16.2973077 C19.4448462,16.2973077 19.7476923,16.2741538 20.0427692,16.2293077 C20.1353846,16.2138462 20.2266154,16.1983846 20.3177692,16.1798462 C20.4136154,16.1597692 20.5077692,16.1396923 20.602,16.115 C20.6483077,16.1041538 20.6946154,16.0917692 20.7411538,16.0779231 C20.7873846,16.0655385 20.8337692,16.0516923 20.88,16.0376923 C20.9263846,16.0238462 20.9711538,16.0083846 21.0176154,15.9929231 C21.1627692,15.9450769 21.3063846,15.891 21.4470769,15.8322308 L21.4593846,15.8616923" id="Fill-37" fill="#FFFFFF"></path>
            <polyline id="Fill-38" fill="#FFFFFF" points="20.8013077 17.5486154 19.224 21.5915385 19.1359231 21.5915385 17.5586154 17.5486154 20.8013077 17.5486154"></polyline>
            <path d="M17.8305385,5.49707692 C18.3495385,5.88638462 18.9289231,6.19692308 19.5545385,6.41161538 C20.1802308,6.62638462 20.8508462,6.74223077 21.549,6.74223077 C22.8081538,6.74223077 23.9791538,6.36530769 24.957,5.71953846 C25.045,6.129 25.096,6.55223077 25.096,6.98784615 L25.096,10.3371538 C25.096,12.0102308 24.407,13.5210769 23.2978462,14.6025385 L23.2963846,14.6025385 C23.0953846,14.7986923 22.8792308,14.9810769 22.652,15.1479231 C22.5006923,15.2590769 22.343,15.3626923 22.1808462,15.46 C22.1129231,15.5000769 22.0449231,15.5386923 21.9753846,15.5773077 C21.9614615,15.5850769 21.9460769,15.5927692 21.9321538,15.6005385 C21.8611538,15.6376154 21.7900769,15.6746923 21.7189231,15.7086923 C21.6926154,15.721 21.6680769,15.7334615 21.6416154,15.7457692 C21.5767692,15.7751538 21.5118462,15.8044615 21.4470769,15.8322308 C21.3063846,15.891 21.1627692,15.9450769 21.0176154,15.9929231 C20.9727692,16.0083846 20.9263846,16.0238462 20.88,16.0376923 C20.8337692,16.0516923 20.7889231,16.0655385 20.7411538,16.0779231 C20.6946154,16.0903077 20.6483077,16.1025385 20.602,16.115 C20.5077692,16.1396923 20.4136154,16.1597692 20.3177692,16.1798462 C20.2266154,16.1983846 20.1353846,16.2138462 20.0427692,16.2293077 C19.7476923,16.2741538 19.4448462,16.2973077 19.1359231,16.2973077 C18.8269231,16.2973077 18.5240769,16.2741538 18.2291538,16.2293077 C18.1363846,16.2138462 18.0453077,16.1983846 17.9540769,16.1798462 C17.8583077,16.1597692 17.7640769,16.1396923 17.6698462,16.115 C17.6234615,16.1025385 17.5771538,16.0903077 17.5308462,16.0779231 C17.4829231,16.0655385 17.4380769,16.0516923 17.3916923,16.0376923 C17.3453846,16.0238462 17.2990769,16.0083846 17.2543077,15.9929231 C17.1353077,15.9527692 17.0163846,15.9094615 16.9005385,15.8631538 L16.9005385,15.8616923 C16.8958462,15.8616923 16.8896154,15.8586154 16.885,15.857 C16.8726923,15.8507692 16.8587692,15.8461538 16.8449231,15.84 C16.7723077,15.8106154 16.7012308,15.7782308 16.6301538,15.7457692 C16.6053846,15.7334615 16.5791538,15.721 16.5529231,15.7086923 C16.4818462,15.6746923 16.4107692,15.6376154 16.3397692,15.6005385 C16.3257692,15.5927692 16.3119231,15.5850769 16.2964615,15.5773077 C16.227,15.5386923 16.1589231,15.5000769 16.091,15.46 C15.9318462,15.3657692 15.7788462,15.2637692 15.6306154,15.1556154 C15.6229231,15.151 15.6166923,15.1448462 15.609,15.1401538 C15.5363846,15.0861538 15.4668462,15.032 15.3973846,14.9764615 C15.3232308,14.9176923 15.2521538,14.8559231 15.1810769,14.7941538 C15.1115385,14.7323077 15.0435385,14.6674615 14.9756154,14.6025385 C14.5739231,14.2116923 14.2278462,13.7652308 13.9497692,13.274 C14.6202308,13.24 15.1516923,12.6853846 15.1516923,12.0071538 C15.1516923,11.3073846 14.5846923,10.7403077 13.8849231,10.7403077 L13.1912308,10.7403077 C13.1819231,10.6075385 13.1773846,10.4730769 13.1773846,10.3371538 L13.1773846,6.98784615 C13.1773846,6.87976923 13.1881538,6.77469231 13.1928462,6.66653846 C13.494,6.71138462 13.7998462,6.74223077 14.112,6.74223077 C15.5101538,6.74223077 16.7939231,6.27569231 17.8305385,5.49707692" id="Fill-39" fill="#FFFFFF"></path>
            <path d="M24.957,5.71953846 C24.6239231,5.93946154 24.268,6.12738462 23.8942308,6.28076923 C23.9697692,6.65992308 24.0145385,7.05007692 24.0145385,7.45130769 L24.0145385,10.8006154 C24.0145385,12.4737692 23.3255385,13.9845385 22.2163846,15.066 L22.2149231,15.066 C22.014,15.2622308 21.7977692,15.4445385 21.5705385,15.6113846 C21.4192308,15.7225385 21.2615385,15.8261538 21.0993846,15.9234615 C21.0417692,15.9575385 20.9836923,15.9902308 20.925,16.0230769 C20.9561538,16.0131538 20.9874615,16.0033077 21.0176154,15.9929231 C21.1627692,15.9450769 21.3063846,15.891 21.4470769,15.8322308 C21.5118462,15.8044615 21.5767692,15.7751538 21.6416154,15.7457692 C21.6680769,15.7334615 21.6926154,15.721 21.7189231,15.7086923 C21.7900769,15.6746923 21.8611538,15.6376154 21.9321538,15.6005385 C21.9460769,15.5927692 21.9614615,15.5850769 21.9753846,15.5773077 C22.0449231,15.5386923 22.1129231,15.5000769 22.1808462,15.46 C22.343,15.3626923 22.5006923,15.2590769 22.652,15.1479231 C22.8792308,14.9810769 23.0953846,14.7986923 23.2963846,14.6025385 L23.2978462,14.6025385 C24.407,13.5210769 25.096,12.0102308 25.096,10.3371538 L25.096,6.98784615 C25.096,6.55223077 25.045,6.129 24.957,5.71953846 Z M16.9049231,6.07276923 C17.2306923,5.90715385 17.5405385,5.71484615 17.8305385,5.49707692 C18.3495385,5.88638462 18.9289231,6.19692308 19.5545385,6.41161538 C20.1802308,6.62638462 20.8508462,6.74223077 21.549,6.74223077 C22.2057692,6.74223077 22.838,6.63884615 23.4319231,6.44907692 C22.5512308,6.93069231 21.5417692,7.20569231 20.4676154,7.20569231 C19.7693846,7.20569231 19.0987692,7.08984615 18.4731538,6.87507692 C17.9091538,6.68161538 17.3833077,6.40961538 16.9049231,6.07276923 L16.9049231,6.07276923 Z" id="Fill-40" fill="#C3EDF0"></path>
            <polyline id="Fill-41" fill="#65D0D9" points="35.5996154 18.3365385 31.2492308 18.3365385 31.3666154 21.5915385 35.4823077 21.5915385 35.6010769 18.3365385 35.5996154 18.3365385"></polyline>
            <polyline id="Fill-42" fill="#FFFFFF" points="35.6906923 15.8616923 35.6010769 18.3365385 31.2477692 18.3365385 31.1581538 15.8616923 35.6906923 15.8616923"></polyline>
            <polyline id="Fill-43" fill="#98E0E6" points="34.1458462 15.8616923 34.0562308 18.3365385 35.6010769 18.3365385 35.6906923 15.8616923 34.1458462 15.8616923"></polyline>
            <polyline id="Fill-44" fill="#53AAB2" points="35.5996154 18.3365385 34.0562308 18.3365385 33.9373846 21.5915385 35.4823077 21.5915385 35.6010769 18.3365385 35.5996154 18.3365385"></polyline>
            <path d="M17.5586154,17.5486154 L19.1359231,21.5915385 L17.7594615,21.5915385 L15.0064615,19.1536923 L15.4173846,17.8066154 L14.0702308,17.2210769 L14.9756154,14.6025385 C15.042,14.669 15.1115385,14.7323077 15.1810769,14.7941538 C15.2521538,14.8574615 15.3232308,14.9176923 15.3973846,14.9764615 C15.4668462,15.0335385 15.5363846,15.0876154 15.609,15.1401538 C15.6166923,15.1448462 15.6229231,15.151 15.6306154,15.1556154 C15.7788462,15.2653077 15.9333846,15.3672308 16.091,15.46 C16.1589231,15.5016923 16.227,15.5403077 16.2964615,15.5773077 C16.3119231,15.5850769 16.3257692,15.5927692 16.3397692,15.6005385 C16.4092308,15.6391538 16.4803077,15.6746923 16.5529231,15.7086923 C16.5791538,15.721 16.6053846,15.7334615 16.6301538,15.7457692 C16.7012308,15.7782308 16.7723077,15.8106154 16.8449231,15.84 C16.8587692,15.8461538 16.8726923,15.8507692 16.885,15.857 C16.8896154,15.8586154 16.8943077,15.8616923 16.9005385,15.8631538 L17.5586154,17.5486154" id="Fill-45" fill="#65D0D9"></path>
            <path d="M20.8013077,17.5486154 L21.4593846,15.8616923 L21.4470769,15.8322308 C21.5135385,15.8044615 21.5784615,15.7751538 21.6416154,15.7457692 C21.6680769,15.7334615 21.6926154,15.721 21.7189231,15.7086923 C21.7916154,15.6746923 21.8626923,15.6391538 21.9321538,15.6005385 C21.9460769,15.5927692 21.9614615,15.5850769 21.9753846,15.5773077 C22.0449231,15.5403077 22.1129231,15.5016923 22.1808462,15.46 C22.343,15.3641538 22.5006923,15.2606923 22.652,15.1479231 C22.8806923,14.9825385 23.0953846,14.8003077 23.2978462,14.6025385 C23.3255385,14.6025385 23.355,14.6025385 23.3828462,14.6040769 L24.2896923,17.2210769 L22.9425385,17.8066154 L23.3533846,19.1536923 L20.6005385,21.5915385 L19.224,21.5915385 L20.8013077,17.5486154" id="Fill-46" fill="#65D0D9"></path>
            <path d="M9.10038462,19.7160769 C9.50984615,16.8333846 11.9831538,14.6133846 14.9756154,14.6025385 L14.0702308,17.2210769 L15.4173846,17.8066154 L15.0064615,19.1536923 L17.7594615,21.5915385 L10.7333846,21.5915385 C10.7333846,20.5564615 10.0273077,19.7160769 9.15607692,19.7160769 L9.10038462,19.7160769" id="Fill-47" fill="#53AAB2"></path>
            <path d="M15.0064615,19.1536923 L15.4173846,17.8066154 L14.0702308,17.2210769 L14.9756154,14.6025385 C14.4121538,14.6045385 13.8671538,14.6850769 13.3509231,14.8333846 L12.5253846,17.2210769 L13.8725385,17.8066154 L13.4615385,19.1536923 L16.2146154,21.5915385 L17.7594615,21.5915385 L15.0064615,19.1536923" id="Fill-48" fill="#49979E"></path>
            <path d="M29.2317692,20.5611538 L29.2317692,21.5915385 L20.6005385,21.5915385 L23.3533846,19.1536923 L22.9425385,17.8066154 L24.2896923,17.2210769 L23.3828462,14.6040769 C26.6223077,14.6628462 29.2317692,17.3076154 29.2317692,20.5611538" id="Fill-49" fill="#53AAB2"></path>
            <path d="M23.3828462,14.6040769 L23.4729231,14.8646154 C25.9118462,15.6109231 27.6868462,17.8783077 27.6868462,20.5611538 L27.6868462,21.5915385 L29.2317692,21.5915385 L29.2317692,20.5611538 C29.2317692,17.3076154 26.6223077,14.6628462 23.3828462,14.6040769" id="Fill-50" fill="#49979E"></path>
            <polyline id="Fill-51" fill="#FFC398" points="19.224 21.5915385 37.73 21.5915385 37.73 24.3012308 0.365692308 24.3012308 0.365692308 21.5915385 19.224 21.5915385"></polyline>
            <path d="M13.8849231,10.7403077 L11.1752308,10.7403077 L11.1752308,13.2754615 L13.8849231,13.2754615 C13.9065385,13.2754615 13.9281538,13.2754615 13.9497692,13.274 C14.6202308,13.24 15.1516923,12.6853846 15.1516923,12.0071538 C15.1516923,11.3073846 14.5846923,10.7403077 13.8849231,10.7403077" id="Fill-52" fill="#FFC398"></path>
            <path d="M13.8849231,10.7403077 L12.649,10.7403077 C13.3488462,10.7403077 13.9157692,11.3073846 13.9157692,12.0071538 C13.9157692,12.6853846 13.3843846,13.24 12.7138462,13.274 C12.6922308,13.2754615 12.6706923,13.2754615 12.649,13.2754615 L13.8849231,13.2754615 C13.9065385,13.2754615 13.9281538,13.2754615 13.9497692,13.274 C14.6202308,13.24 15.1516923,12.6853846 15.1516923,12.0071538 C15.1516923,11.3073846 14.5846923,10.7403077 13.8849231,10.7403077" id="Fill-53" fill="#E8965B"></path>
            <path d="M11.1752308,10.7403077 L11.1752308,13.2754615 C10.4753846,13.2754615 9.90838462,12.7069231 9.90838462,12.0071538 C9.90838462,11.6564615 10.0505385,11.3413077 10.2792308,11.1111538 C10.5078462,10.8825385 10.826,10.7403077 11.1752308,10.7403077" id="Fill-54" fill="#E8965B"></path>
            <path d="M9.15607692,19.7160769 L4.54461538,19.7160769 C3.67330769,19.7160769 2.96730769,20.5564615 2.96730769,21.5915385 L10.7333846,21.5915385 C10.7333846,20.5564615 10.0273077,19.7160769 9.15607692,19.7160769" id="Fill-55" fill="#E8965B"></path>
            <path d="M9.15607692,19.7160769 L7.61123077,19.7160769 C8.48246154,19.7160769 9.18853846,20.5564615 9.18853846,21.5915385 L10.7333846,21.5915385 C10.7333846,20.5564615 10.0273077,19.7160769 9.15607692,19.7160769" id="Fill-56" fill="#A26940"></path>
            <path d="M31.3666154,21.9005385 L29.2317692,21.9005385 C29.0610769,21.9005385 28.9227692,21.7622308 28.9227692,21.5915385 C28.9227692,21.4209231 29.0610769,21.2825385 29.2317692,21.2825385 L31.3666154,21.2825385 C31.5372308,21.2825385 31.6756154,21.4209231 31.6756154,21.5915385 C31.6756154,21.7622308 31.5372308,21.9005385 31.3666154,21.9005385" id="Fill-58" fill="#000000"></path>
            <path d="M6.42146154,24.6102308 L0.365692308,24.6102308 C0.195076923,24.6102308 0.0566923077,24.4719231 0.0566923077,24.3012308 L0.0566923077,21.5915385 C0.0566923077,21.4209231 0.195076923,21.2825385 0.365692308,21.2825385 L2.96730769,21.2825385 C3.13792308,21.2825385 3.27630769,21.4209231 3.27630769,21.5915385 C3.27630769,21.7622308 3.13792308,21.9005385 2.96730769,21.9005385 L0.674692308,21.9005385 L0.674692308,23.9923077 L6.42146154,23.9923077 C6.59207692,23.9923077 6.73046154,24.1306923 6.73046154,24.3012308 C6.73046154,24.4719231 6.59207692,24.6102308 6.42146154,24.6102308" id="Fill-59" fill="#000000"></path>
            <path d="M37.73,24.6102308 L31.6743077,24.6102308 C31.5036154,24.6102308 31.3652308,24.4719231 31.3652308,24.3012308 C31.3652308,24.1306923 31.5036154,23.9923077 31.6743077,23.9923077 L37.4210769,23.9923077 L37.4210769,21.9005385 L35.4823077,21.9005385 C35.3116154,21.9005385 35.1733077,21.7622308 35.1733077,21.5915385 C35.1733077,21.4209231 35.3116154,21.2825385 35.4823077,21.2825385 L37.73,21.2825385 C37.9006154,21.2825385 38.039,21.4209231 38.039,21.5915385 L38.039,24.3012308 C38.039,24.4719231 37.9006154,24.6102308 37.73,24.6102308" id="Fill-60" fill="#000000"></path>
            <path d="M21.9756923,15.8863846 C21.8650769,15.8863846 21.7582308,15.8269231 21.7026154,15.7225385 C21.6224615,15.572 21.6795385,15.3848462 21.8300769,15.3046154 C21.894,15.2705385 21.9566923,15.2351538 22.0190769,15.1966923 C22.182,15.1004615 22.3312308,15.0016154 22.4673077,14.9002308 C22.6821538,14.7447692 22.8877692,14.5711538 23.0819231,14.3814615 C24.1816154,13.3093846 24.787,11.8731538 24.787,10.3371538 L24.787,6.98784615 C24.787,6.59723077 24.7425385,6.19230769 24.6550769,5.78438462 C24.6191538,5.61761538 24.7253846,5.45323077 24.8922308,5.41738462 C25.0597692,5.38146154 25.2233077,5.48784615 25.2590769,5.65461538 C25.3559231,6.10515385 25.405,6.55369231 25.405,6.98784615 L25.405,10.3371538 C25.405,12.0412308 24.7331538,13.6345385 23.5136154,14.8237692 C23.2978462,15.0343846 23.0688462,15.2277692 22.833,15.3983077 C22.6829231,15.5102308 22.5151538,15.6213077 22.3380769,15.726 C22.2692308,15.7683077 22.1957692,15.8100769 22.1206154,15.8500769 C22.0743077,15.8746923 22.0246923,15.8863846 21.9756923,15.8863846" id="Fill-61" fill="#000000"></path>
            <path d="M21.7190769,16.0176923 C21.6026923,16.0176923 21.4913846,15.9516923 21.4388462,15.8394615 C21.3667692,15.6847692 21.4336154,15.5008462 21.5881538,15.4286923 C21.6543077,15.3978462 21.7190769,15.3655385 21.7822308,15.3303846 C21.9315385,15.2473846 22.1194615,15.3013846 22.2022308,15.4504615 C22.2852308,15.5996923 22.2313846,15.7878462 22.0821538,15.8706154 C22.0063077,15.9127692 21.9288462,15.9516923 21.8495385,15.9886923 C21.8072308,16.0083846 21.7627692,16.0176923 21.7190769,16.0176923" id="Fill-62" fill="#000000"></path>
            <path d="M21.4471538,16.1413077 C21.3261538,16.1413077 21.2113846,16.0697692 21.1618462,15.9512308 C21.0960769,15.7936923 21.1706154,15.6127692 21.328,15.5470769 C21.3907692,15.5209231 21.452,15.4932308 21.5115385,15.4655385 C21.6660769,15.3939231 21.85,15.4609231 21.9219231,15.6156923 C21.9937692,15.7704615 21.9264615,15.9542308 21.7716923,16.026 C21.7048462,16.0570769 21.6363077,16.088 21.566,16.1173846 C21.5271538,16.1336154 21.4868462,16.1413077 21.4471538,16.1413077" id="Fill-63" fill="#000000"></path>
            <path d="M20.6016923,16.424 C20.4613846,16.424 20.3343846,16.3276923 20.301,16.1850769 C20.2623846,16.0188462 20.3657692,15.8527692 20.5318462,15.8140769 C20.5721538,15.8046923 20.6122308,15.7939231 20.6526923,15.7818462 C20.7046154,15.7679231 20.7477692,15.7549231 20.7908462,15.7418462 C20.8246923,15.7317692 20.8573077,15.7208462 20.8903077,15.7096923 L20.9200769,15.6997692 C21.0824615,15.6459231 21.2569231,15.7335385 21.3107692,15.8953846 C21.3646154,16.0573077 21.2771538,16.2321538 21.1152308,16.2860769 L21.0867692,16.2956154 C21.0473846,16.3088462 21.0085385,16.3218462 20.9687692,16.3336923 C20.9197692,16.3484615 20.8702308,16.3632308 20.8207692,16.3763846 C20.7770769,16.3896923 20.7245385,16.4036154 20.6721538,16.4158462 C20.6484615,16.4213846 20.6249231,16.424 20.6016923,16.424" id="Fill-64" fill="#000000"></path>
            <path d="M20.0424615,16.5383846 C19.8941538,16.5383846 19.7632308,16.4312308 19.738,16.2801538 C19.7099231,16.1119231 19.8235385,15.9526154 19.9919231,15.9245385 C20.0809231,15.9096923 20.1685385,15.8949231 20.2560769,15.8770769 C20.4241538,15.8426154 20.5864615,15.9510769 20.6205385,16.1182308 C20.6546923,16.2853846 20.5466154,16.4485385 20.3795385,16.4826154 C20.2846923,16.5018462 20.1898462,16.518 20.0936154,16.5340769 C20.0763846,16.5369231 20.0593077,16.5383846 20.0424615,16.5383846" id="Fill-65" fill="#000000"></path>
            <path d="M18.2294615,16.5383846 C18.2126154,16.5383846 18.1954615,16.5369231 18.1782308,16.5340769 C18.0819231,16.518 17.9872308,16.5018462 17.8924615,16.4826154 C17.7253077,16.4486154 17.6172308,16.2854615 17.6513077,16.1182308 C17.6853077,15.9510769 17.8476923,15.8426923 18.0156923,15.8770769 C18.1033077,15.8949231 18.1908462,15.9096923 18.2799231,15.9245385 C18.4482308,15.9526154 18.5619231,16.1119231 18.5338462,16.2801538 C18.5086923,16.4312308 18.3777692,16.5383846 18.2294615,16.5383846" id="Fill-66" fill="#000000"></path>
            <path d="M17.6701538,16.424 C17.6469231,16.424 17.6233846,16.4213846 17.5998462,16.4159231 C17.5472308,16.4036154 17.4946923,16.3896154 17.4421538,16.3739231 C17.4016923,16.3633077 17.3523077,16.3485385 17.3027692,16.3335385 C17.2625385,16.3216154 17.223,16.3083077 17.1828462,16.2948462 L17.1564615,16.286 C16.9945385,16.232 16.9071538,16.057 16.9612308,15.8950769 C17.0153077,15.7333077 17.1906154,15.646 17.3521538,15.6998462 L17.3796923,15.7090769 C17.4133077,15.7203846 17.4463846,15.7315385 17.4804615,15.7416923 C17.524,15.7548462 17.5672308,15.7678462 17.6104615,15.7793846 C17.6596154,15.794 17.6996154,15.8046923 17.7398462,15.814 C17.906,15.8526923 18.0094615,16.0186923 17.9708462,16.185 C17.9376154,16.3276154 17.8105385,16.424 17.6701538,16.424" id="Fill-67" fill="#000000"></path>
            <path d="M16.9006923,16.1722308 C16.8765385,16.1722308 16.8519231,16.1693846 16.8272308,16.1633077 C16.8101538,16.1591538 16.786,16.1506154 16.7676923,16.1427692 C16.6172308,16.0812308 16.5393077,15.9120769 16.5929231,15.7563846 C16.6483077,15.595 16.8242308,15.5089231 16.9856154,15.5648462 C16.9915385,15.5668462 16.9992308,15.5699231 17.0066154,15.573 C17.1526923,15.6261538 17.2383846,15.7818462 17.2006154,15.9363846 C17.1662308,16.0775385 17.0399231,16.1722308 16.9006923,16.1722308" id="Fill-68" fill="#000000"></path>
            <path d="M16.8448462,16.1490769 C16.8063077,16.1490769 16.7671538,16.1418462 16.7291538,16.1264615 C16.6523077,16.0954615 16.577,16.0611538 16.5018462,16.0268462 C16.3466154,15.956 16.2781538,15.7726923 16.3490769,15.6174615 C16.4199231,15.4624615 16.6028462,15.3937692 16.7584615,15.4646923 C16.8253846,15.4953077 16.8922308,15.5259231 16.9606154,15.5535385 C17.1188462,15.6173846 17.1953077,15.7975385 17.1313846,15.9556923 C17.0828462,16.0760769 16.967,16.1490769 16.8448462,16.1490769" id="Fill-69" fill="#000000"></path>
            <path d="M16.5526923,16.0176923 C16.5089231,16.0176923 16.4644615,16.0083846 16.4220769,15.9886154 C16.3429231,15.9516154 16.2653846,15.9126923 16.1896154,15.8705385 C16.0404615,15.7876923 15.9867692,15.5995385 16.0696923,15.4503846 C16.1525385,15.3012308 16.3407692,15.2474615 16.4898462,15.3304615 C16.5530769,15.3656154 16.6176154,15.3979231 16.6836923,15.4287692 C16.8382308,15.501 16.9051538,15.6849231 16.8328462,15.8394615 C16.7803846,15.9517692 16.669,16.0176923 16.5526923,16.0176923" id="Fill-70" fill="#000000"></path>
            <path d="M16.2961538,15.8863846 C16.2470769,15.8863846 16.1973846,15.8746923 16.1510769,15.85 C16.0760769,15.8100769 16.0026923,15.7683846 15.9293077,15.7233077 C15.7666154,15.6276923 15.6026154,15.5191538 15.4468462,15.404 C15.3096923,15.3025385 15.2806923,15.1090769 15.3821538,14.9718462 C15.4837692,14.8346154 15.6773846,14.8058462 15.8143077,14.9071538 C15.9527692,15.0095385 16.0984615,15.1059231 16.2476154,15.1936923 C16.3151538,15.2350769 16.3778462,15.2705385 16.4417692,15.3046923 C16.5923846,15.385 16.6493846,15.5721538 16.569,15.7226923 C16.5134615,15.8269231 16.4066154,15.8863846 16.2961538,15.8863846" id="Fill-71" fill="#000000"></path>
            <path d="M15.6087692,15.4490769 C15.546,15.4490769 15.4826923,15.4300769 15.428,15.3906154 C15.3502308,15.3343077 15.2756154,15.2763846 15.2011538,15.2150769 C15.1266154,15.1561538 15.0510769,15.0920769 14.9754615,15.0247692 C14.9017692,14.9593077 14.8277692,14.8916923 14.757,14.8209231 C14.3347692,14.41 13.9716154,13.9397692 13.6808462,13.4262308 C13.5968462,13.2776923 13.6490769,13.0892308 13.7975385,13.0050769 C13.9461538,12.9210769 14.1346154,12.9732308 14.2186923,13.1217692 C14.4804615,13.5843077 14.8076923,14.008 15.191,14.3810769 C15.2562308,14.4463077 15.3213077,14.5053846 15.3862308,14.5631538 C15.4532308,14.6229231 15.5197692,14.6792308 15.5892308,14.7343077 C15.6580769,14.7907692 15.7225385,14.841 15.79,14.8896923 C15.9283077,14.9896923 15.9593846,15.1828462 15.8594615,15.3210769 C15.799,15.4046923 15.7046154,15.4490769 15.6087692,15.4490769" id="Fill-72" fill="#000000"></path>
            <path d="M13.1909231,11.0493077 C13.0301538,11.0493077 12.8943846,10.9247692 12.883,10.7618462 C12.8733077,10.6229231 12.8683846,10.4799231 12.8683846,10.3371538 L12.8683846,6.98784615 C12.8683846,6.91246154 12.873,6.83838462 12.8777692,6.76407692 C12.8801538,6.72730769 12.8824615,6.69046154 12.8841538,6.65323077 C12.8915385,6.48276923 13.0378462,6.35092308 13.2061538,6.35792308 C13.3766154,6.36530769 13.5088462,6.50946154 13.5015385,6.67992308 C13.4996923,6.72153846 13.497,6.76276923 13.4943846,6.80384615 C13.4904615,6.86507692 13.4863077,6.92584615 13.4863077,6.98784615 L13.4863077,10.3371538 C13.4863077,10.4656923 13.4907692,10.5940769 13.4994615,10.7188462 C13.5113846,10.8890769 13.383,11.0366154 13.2127692,11.0485385 C13.2053846,11.0490769 13.1981538,11.0493077 13.1909231,11.0493077" id="Fill-73" fill="#000000"></path>
            <path d="M21.549,7.05123077 C20.8304615,7.05123077 20.1257692,6.93438462 19.4542308,6.70384615 C18.8063846,6.48153846 18.1976923,6.15869231 17.6450769,5.74423077 C17.5086154,5.64184615 17.4809231,5.44823077 17.5833077,5.31161538 C17.6858462,5.17507692 17.8795385,5.14769231 18.0159231,5.24984615 C18.5167692,5.62553846 19.0681538,5.91807692 19.6549231,6.11938462 C20.2616154,6.32769231 20.8989231,6.43323077 21.549,6.43323077 C22.6328462,6.43323077 23.6850769,6.13769231 24.6055385,5.57669231 C23.9687692,3.10815385 21.7023077,1.33830769 19.1359231,1.33830769 C17.9816154,1.33830769 16.8748462,1.68676923 15.9226923,2.34792308 C15.9223846,2.48215385 15.8339231,2.60553846 15.6984615,2.64415385 C15.5337692,2.691 15.3633846,2.59592308 15.3165385,2.432 C15.3088462,2.40530769 15.3021538,2.378 15.2955385,2.35061538 C15.2911538,2.33261538 15.2867692,2.31453846 15.2817692,2.29638462 C15.2478462,2.17361538 15.2927692,2.04253846 15.395,1.96638462 C16.4893077,1.15123077 17.7829231,0.720307692 19.1359231,0.720307692 C22.0625385,0.720307692 24.6376923,2.79515385 25.2589231,5.65384615 C25.2861538,5.77861538 25.2337692,5.907 25.1273846,5.97730769 C24.0634615,6.67984615 22.8260769,7.05123077 21.549,7.05123077" id="Fill-74" fill="#000000"></path>
            <path d="M17.1863077,5.24838462 C17.1073077,5.24838462 17.0281538,5.21815385 16.9678462,5.15784615 C16.9156923,5.10569231 16.8650769,5.05361538 16.8145385,5.00138462 C16.6957692,4.87892308 16.6988462,4.68330769 16.8214615,4.56446154 C16.944,4.446 17.1395385,4.449 17.2583077,4.57146154 C17.3066154,4.62123077 17.355,4.67107692 17.4047692,4.72092308 C17.5254615,4.84153846 17.5254615,5.03723077 17.4047692,5.15784615 C17.3445385,5.21815385 17.2653846,5.24838462 17.1863077,5.24838462" id="Fill-75" fill="#000000"></path>
            <path d="M13.524,6.39838462 C13.7356923,6.422 13.927,6.43323077 14.112,6.43323077 C15.2593846,6.43323077 16.3592308,6.10492308 17.3169231,5.47992308 C17.1964615,5.37653846 17.0800769,5.26915385 16.9686923,5.15876923 C16.9168462,5.10853846 16.864,5.05415385 16.8112308,4.998 C16.6616154,4.84046154 16.515,4.66815385 16.3768462,4.48730769 L16.2951538,4.37676923 C16.1928462,4.23815385 16.1036154,4.10615385 16.0220769,3.97292308 C15.9815385,3.90992308 15.939,3.84115385 15.8980769,3.77084615 C15.8528462,3.69069231 15.8116154,3.61584615 15.7702308,3.538 C15.7096923,3.41976923 15.6415385,3.28338462 15.5783846,3.13630769 C15.5627692,3.10261538 15.546,3.06123077 15.5293846,3.01953846 L15.5049231,2.95969231 C15.4792308,2.89453846 15.4505385,2.82007692 15.4216923,2.74046154 C14.3493846,3.67707692 13.6726154,4.97876923 13.524,6.39838462 Z M14.112,7.05123077 C13.8162308,7.05123077 13.5097692,7.02607692 13.1473077,6.97215385 C12.9896154,6.94869231 12.8756154,6.80907692 12.8843077,6.64984615 C12.9852308,4.78984615 13.8996923,3.084 15.3933077,1.96961538 C15.4747692,1.90892308 15.5806923,1.89207692 15.677,1.92453846 C15.7731538,1.95707692 15.8473077,2.03476923 15.8751538,2.13246154 L15.9106923,2.26230769 C15.9156923,2.27923077 15.9227692,2.29823077 15.9296154,2.31746154 L15.9484615,2.37146154 C15.9908462,2.50361538 16.0396154,2.63076923 16.0773846,2.72707692 L16.1027692,2.78930769 C16.1157692,2.82169231 16.1286154,2.85392308 16.1430769,2.88553846 C16.2020769,3.02276923 16.2644615,3.14738462 16.3180769,3.25223077 C16.3549231,3.32153846 16.3939231,3.39192308 16.4343846,3.464 C16.4684615,3.52253846 16.5063846,3.58353846 16.5456154,3.64461538 C16.6213077,3.76830769 16.7008462,3.88584615 16.7923077,4.00984615 L16.8708462,4.11615385 C16.9926923,4.27553846 17.1247692,4.43084615 17.2603846,4.57361538 C17.3076923,4.62384615 17.3537692,4.67146154 17.4013077,4.71746154 C17.5937692,4.90830993 17.7998462,5.08676923 18.0166923,5.25046154 C18.0941538,5.30892308 18.1396154,5.40038462 18.1394619,5.49746154 C18.1393846,5.59446154 18.0936923,5.68576923 18.0160769,5.74407692 C16.8776154,6.59923077 15.5276154,7.05123077 14.112,7.05123077 L14.112,7.05123077 Z" id="Fill-76" fill="#000000"></path>
            <path d="M6.02615385,20.0250769 C5.85553846,20.0250769 5.71715385,19.8866923 5.71715385,19.7160769 L5.71715385,13.5520769 C5.71715385,12.5298462 6.54884615,11.6982308 7.571,11.6982308 L9.90838462,11.6982308 C10.079,11.6982308 10.2173846,11.8365385 10.2173846,12.0071538 C10.2173846,12.1777692 10.079,12.3161538 9.90838462,12.3161538 L7.571,12.3161538 C6.88953846,12.3161538 6.33507692,12.8706154 6.33507692,13.5520769 L6.33507692,19.7160769 C6.33507692,19.8866923 6.19676923,20.0250769 6.02615385,20.0250769" id="Fill-77" fill="#000000"></path>
            <path d="M11.1752308,11.0493077 C10.9190769,11.0493077 10.6784615,11.1488462 10.4976923,11.3296154 C10.3171538,11.5113077 10.2173846,11.7522308 10.2173846,12.0071538 C10.2173846,12.5362308 10.647,12.9665385 11.1752308,12.9665385 L13.8849231,12.9665385 C13.8993077,12.9666154 13.9139231,12.9666923 13.9283077,12.9657692 C14.4436154,12.9396154 14.8426923,12.5186923 14.8426923,12.0071538 C14.8426923,11.479 14.413,11.0493077 13.8849231,11.0493077 L11.1752308,11.0493077 Z M13.8849231,13.5844615 L11.1752308,13.5844615 C10.3063077,13.5844615 9.59938462,12.8769231 9.59938462,12.0071538 C9.59938462,11.5879231 9.763,11.1923846 10.06,10.8933846 C10.3581538,10.5952308 10.754,10.4313846 11.1752308,10.4313846 L13.8849231,10.4313846 C14.7537692,10.4313846 15.4606154,11.1382308 15.4606154,12.0071538 C15.4606154,12.848 14.8038462,13.5400769 13.9654615,13.5826154 C13.9424615,13.5842308 13.9136923,13.5844615 13.8849231,13.5844615 L13.8849231,13.5844615 Z" id="Fill-78" fill="#000000"></path>
            <path d="M31.6646154,21.2825385 L35.1843077,21.2825385 L35.3703077,16.1706154 L31.4786154,16.1706154 L31.6646154,21.2825385 Z M35.4823077,21.9005385 L31.3666154,21.9005385 C31.2003077,21.9005385 31.064,21.769 31.0577692,21.6028462 L30.8493077,15.8728462 C30.8463077,15.789 30.8775385,15.7075385 30.9357692,15.6471538 C30.994,15.5867692 31.0742308,15.5526923 31.1581538,15.5526923 L35.6906923,15.5526923 C35.7746154,15.5526923 35.8548462,15.5867692 35.9131538,15.6471538 C35.9713846,15.7075385 36.0026154,15.789 35.9995385,15.8728462 L35.7910769,21.6028462 C35.7849231,21.769 35.6485385,21.9005385 35.4823077,21.9005385 L35.4823077,21.9005385 Z" id="Fill-79" fill="#000000"></path>
            <path d="M35.5996154,18.6455385 L31.2492308,18.6455385 C31.0786154,18.6455385 30.9403077,18.5071538 30.9403077,18.3365385 C30.9403077,18.1659231 31.0786154,18.0275385 31.2492308,18.0275385 L35.5996154,18.0275385 C35.7703077,18.0275385 35.9086154,18.1659231 35.9086154,18.3365385 C35.9086154,18.5071538 35.7703077,18.6455385 35.5996154,18.6455385" id="Fill-80" fill="#000000"></path>
            <path d="M29.2317692,21.9005385 L10.7333846,21.9005385 C10.5627692,21.9005385 10.4244615,21.7622308 10.4244615,21.5915385 C10.4244615,21.4209231 10.5627692,21.2825385 10.7333846,21.2825385 L28.9227692,21.2825385 L28.9227692,20.5611538 C28.9227692,17.5156154 26.4569231,14.9906923 23.4176923,14.9139231 C23.2356154,15.0840769 23.0400769,15.2462308 22.8348462,15.3969231 C22.6826154,15.5087692 22.5160769,15.6191538 22.3398462,15.7249231 C22.2676923,15.7675385 22.1972308,15.8074615 22.1253077,15.8474615 L22.082,15.8706923 C22.0008462,15.9132308 21.9264615,15.952 21.8517692,15.9875385 L21.7727692,16.0255385 C21.7021538,16.0575385 21.6353077,16.0877692 21.5686154,16.1163077 C21.4147692,16.1806154 21.2627692,16.2374615 21.1143077,16.2863846 C21.0696923,16.3017692 21.0191538,16.3185385 20.9687692,16.3336923 L20.9506154,16.3391538 C20.9069231,16.3523077 20.8638462,16.3653077 20.8185385,16.377 L20.6817692,16.4134615 C20.5812308,16.4398462 20.4820769,16.4611538 20.3811538,16.4822308 C20.2846923,16.5018462 20.1898462,16.518 20.0936154,16.5340769 C19.4598462,16.6303077 18.8071538,16.6295385 18.1826923,16.5348462 C18.0819231,16.518 17.9872308,16.5018462 17.8924615,16.4826154 C17.7898462,16.4611538 17.6906154,16.4398462 17.5913846,16.4138462 L17.4510769,16.3763846 C17.4083077,16.3653846 17.3655385,16.3525385 17.3220769,16.3394615 L17.3027692,16.3335385 C17.2526154,16.3185385 17.2022308,16.3017692 17.1535385,16.285 C17.026,16.242 16.9016154,16.1963846 16.7858462,16.1500769 C16.6273846,16.0867692 16.5502308,15.9069231 16.6136154,15.7484615 C16.6768462,15.59 16.8568462,15.5126923 17.0151538,15.5763077 C17.1205385,15.6183846 17.2342308,15.66 17.353,15.7001538 C17.3959231,15.7149231 17.4381538,15.7290769 17.4804615,15.7416923 L17.5006923,15.7478462 C17.5362308,15.7586154 17.5710769,15.7692308 17.6080769,15.7787692 L17.7494615,15.8163846 C17.8375385,15.8395385 17.9266923,15.8584615 18.0174615,15.8774615 C18.1033077,15.8949231 18.1908462,15.9096923 18.2799231,15.9245385 C18.8343846,16.0086154 19.4326154,16.0093846 19.9963846,15.9238462 C20.0809231,15.9096923 20.1685385,15.8949231 20.2560769,15.8770769 C20.3450769,15.8584615 20.4343077,15.8395385 20.5236154,15.8160769 L20.6616154,15.7793846 C20.7009231,15.7691538 20.7359231,15.7584615 20.7716923,15.7476923 L20.7908462,15.7418462 C20.8336154,15.7290769 20.876,15.7149231 20.9168462,15.7008462 C21.0543077,15.6554615 21.1910769,15.6043077 21.3278462,15.5471538 C21.3884615,15.5212308 21.4513846,15.4926923 21.5143077,15.4643077 L21.5871538,15.4292308 C21.6536923,15.3974615 21.7214615,15.362 21.7892308,15.3266154 L21.8245385,15.3077692 C21.8925385,15.2699231 21.9581538,15.2326923 22.0236154,15.194 C22.1816923,15.0990769 22.3321538,14.9995385 22.469,14.8989231 C22.6871538,14.7387692 22.8926923,14.5646923 23.0804615,14.3813846 C23.1382308,14.3250769 23.2156154,14.2935385 23.2963846,14.2935385 C23.3313846,14.2935385 23.367,14.2936923 23.4003846,14.2956923 C26.7806923,14.3566154 29.5406923,17.1675385 29.5406923,20.5611538 L29.5406923,21.5915385 C29.5406923,21.7622308 29.4023077,21.9005385 29.2317692,21.9005385" id="Fill-81" fill="#000000"></path>
            <path d="M16.9936831,15.5584615 L16.8623077,15.8471538 L17.0161538,15.5623077 C17.0093604,15.561 17.0017308,15.5596923 16.9936831,15.5584615 Z M9.10076923,20.0251538 C9.08630769,20.0251538 9.07169231,20.0240769 9.057,20.022 C8.888,19.998 8.77053846,19.8416154 8.79453846,19.6726154 C9.22853846,16.6172308 11.8853077,14.3047692 14.9744615,14.2935385 C14.9748462,14.2935385 14.9752308,14.2935385 14.9756154,14.2935385 C15.0550769,14.2935385 15.1316154,14.3241538 15.1890769,14.3791538 C15.2543077,14.4414615 15.3194615,14.5037692 15.3862308,14.5631538 C15.4513846,14.6196923 15.5187692,14.6784615 15.5892308,14.7343077 C15.6567692,14.7883077 15.7231538,14.84 15.7924615,14.8915385 C15.7967692,14.8946154 15.8009231,14.8975385 15.8044615,14.9002308 C15.8072308,14.9020769 15.81,14.904 15.8126923,14.906 C15.9583077,15.0121538 16.1048462,15.1091538 16.2483846,15.1941538 C16.3136923,15.2326923 16.3794615,15.2699231 16.4465385,15.3073077 C16.4535385,15.3105385 16.4702308,15.3196923 16.4869231,15.3287692 C16.5505385,15.3620769 16.6183077,15.3975385 16.6860769,15.4298462 C16.7130769,15.4426154 16.7415385,15.4560769 16.7683077,15.4693846 C16.8253846,15.4953077 16.8922308,15.5259231 16.9606154,15.5535385 L16.9590769,15.5581538 C16.9646923,15.5593077 16.9703077,15.5605385 16.9757692,15.5619231 L16.9764615,15.5600769 C16.9818462,15.5622308 16.9871538,15.5643846 16.9922308,15.5665385 C17.1181538,15.6056154 17.2094615,15.7229231 17.2094615,15.8616923 C17.2094615,16.0323077 17.0711538,16.1706154 16.9005385,16.1706154 C16.8617692,16.1706154 16.8116154,16.1601538 16.7755385,16.1458462 C16.7671538,16.1425385 16.755,16.1373846 16.7468462,16.1333846 L16.7191538,16.1222308 C16.6523077,16.0954615 16.577,16.0611538 16.5018462,16.0268462 C16.4693077,16.0107692 16.4453077,15.9994615 16.4212308,15.9881538 C16.3453846,15.9519231 16.271,15.9132308 16.1966923,15.8743846 L16.1576923,15.8534615 C16.0745385,15.8074615 16.0041538,15.7675385 15.9338462,15.726 C15.7730769,15.6308462 15.6099231,15.5229231 15.4485385,15.4052308 C15.4434615,15.4016923 15.4385385,15.3981538 15.4343846,15.395 C15.4311538,15.3927692 15.4279231,15.3905385 15.4246923,15.3880769 C15.3490769,15.3318462 15.2766923,15.2755385 15.2043077,15.2176923 C15.1276154,15.1568462 15.0529231,15.0921538 14.9783846,15.0273077 C14.9358462,14.9896154 14.8946923,14.9514615 14.8540769,14.9133077 C12.1221538,14.9830769 9.79169231,17.0463077 9.40630769,19.7594615 C9.38446154,19.9136923 9.25215385,20.0251538 9.10076923,20.0251538 L9.10076923,20.0251538 Z" id="Fill-82" fill="#000000"></path>
            <path d="M3.30107692,21.2825385 L10.3996923,21.2825385 C10.2831538,20.5663077 9.76976923,20.0250769 9.15607692,20.0250769 L4.54461538,20.0250769 C3.93092308,20.0250769 3.41761538,20.5663077 3.30107692,21.2825385 Z M10.7333846,21.9005385 L2.96730769,21.9005385 C2.79669231,21.9005385 2.65838462,21.7622308 2.65838462,21.5915385 C2.65838462,20.3870769 3.50453846,19.4070769 4.54461538,19.4070769 L9.15607692,19.4070769 C10.1961538,19.4070769 11.0423846,20.3870769 11.0423846,21.5915385 C11.0423846,21.7622308 10.904,21.9005385 10.7333846,21.9005385 L10.7333846,21.9005385 Z" id="Fill-83" fill="#000000"></path>
            <path d="M19.1359231,13.5474615 C18.4547692,13.5474615 17.8250769,13.2384615 17.4084615,12.6998462 C17.3040769,12.5647692 17.3288462,12.3707692 17.4638462,12.2663846 C17.599,12.162 17.7930769,12.1869231 17.8973077,12.3217692 C18.196,12.708 18.6474615,12.9294615 19.1359231,12.9294615 C19.8930769,12.9294615 20.5263077,12.3889231 20.6702308,11.6734615 L17.262,11.6734615 C17.0913846,11.6734615 16.953,11.5350769 16.953,11.3644615 C16.953,11.1938462 17.0913846,11.0555385 17.262,11.0555385 L21.0097692,11.0555385 C21.1804615,11.0555385 21.3188462,11.1938462 21.3188462,11.3644615 C21.3188462,12.5681538 20.3394615,13.5474615 19.1359231,13.5474615" id="Fill-84" fill="#000000"></path>
            <path d="M19.5746154,14.6103077 L18.6971538,14.6103077 C18.5265385,14.6103077 18.3881538,14.4719231 18.3881538,14.3013077 C18.3881538,14.1306923 18.5265385,13.9923077 18.6971538,13.9923077 L19.5746154,13.9923077 C19.7452308,13.9923077 19.8835385,14.1306923 19.8835385,14.3013077 C19.8835385,14.4719231 19.7452308,14.6103077 19.5746154,14.6103077" id="Fill-85" fill="#000000"></path>
            <path d="M15.9379231,9.01023077 C15.8976923,9.01023077 15.8569231,9.00238462 15.8175385,8.98569231 C15.6604615,8.91907692 15.587,8.73784615 15.6535385,8.58069231 C15.8391538,8.14238462 16.2661538,7.85915385 16.7413846,7.85915385 C17.1907692,7.85915385 17.6074615,8.11984615 17.8027692,8.52323077 C17.8770769,8.67676923 17.8128462,8.86161538 17.6593077,8.936 C17.5057692,9.01023077 17.321,8.94607692 17.2465385,8.79253846 C17.1523846,8.598 16.9588462,8.47715385 16.7413846,8.47715385 C16.5147692,8.47715385 16.3112308,8.61238462 16.2226154,8.82161538 C16.1726923,8.93946154 16.0583077,9.01023077 15.9379231,9.01023077" id="Fill-86" fill="#000000"></path>
            <path d="M20.5709231,9.01023077 C20.5310769,9.01023077 20.4906923,9.00253846 20.4517692,8.98615385 C20.2942308,8.92023077 20.2201538,8.73915385 20.2860769,8.58176923 C20.47,8.14276923 20.8972308,7.85915385 21.3744615,7.85915385 C21.8238462,7.85915385 22.2405385,8.11984615 22.4357692,8.52323077 C22.5101538,8.67676923 22.4459231,8.86161538 22.2923077,8.936 C22.1396154,9.01015385 21.9540769,8.94623077 21.8796923,8.79253846 C21.7853846,8.598 21.5918462,8.47715385 21.3744615,8.47715385 C21.1469231,8.47715385 20.9434615,8.61192308 20.8560769,8.82053846 C20.8063846,8.93892308 20.6917692,9.01023077 20.5709231,9.01023077" id="Fill-87" fill="#000000"></path>
            <path d="M19.1360769,21.9006923 C19.0123846,21.9006923 18.8956923,21.826 18.848,21.7038462 L16.6126923,15.9755385 C16.5986923,15.9396923 16.5915385,15.9016154 16.5915385,15.8631538 C16.5915385,15.6925385 16.7298462,15.5534615 16.9005385,15.5534615 C17.0383077,15.5534615 17.155,15.6431538 17.1948462,15.7676154 L19.4237692,21.4793077 C19.4856923,21.6381538 19.4071538,21.8173846 19.2481538,21.8793846 C19.2113077,21.8937692 19.1733077,21.9006923 19.1360769,21.9006923" id="Fill-88" fill="#000000"></path>
            <path d="M17.7593077,21.9005385 C17.6865385,21.9005385 17.6134615,21.8748462 17.5546154,21.8228462 L14.8016154,19.3850769 C14.7110769,19.3048462 14.6756154,19.1792308 14.7109231,19.0636154 L15.0414615,17.9801538 L13.9470769,17.5045385 C13.7990769,17.4401538 13.7255385,17.2726923 13.7782308,17.1201538 L14.6836154,14.5016154 C14.7393077,14.3403077 14.9150769,14.2547692 15.0765385,14.3105385 C15.2377692,14.3663077 15.3233846,14.5421538 15.2676154,14.7034615 L14.4556923,17.0517692 L15.5406154,17.5232308 C15.6846154,17.5858462 15.7587692,17.7465385 15.713,17.8967692 L15.3599231,19.054 L17.9642308,21.3603077 C18.0920769,21.4734615 18.1039231,21.6686923 17.9907692,21.7964615 C17.9296923,21.8653846 17.8446923,21.9005385 17.7593077,21.9005385" id="Fill-89" fill="#000000"></path>
            <path d="M19.2238462,21.9006923 C19.1866154,21.9006923 19.1486154,21.8937692 19.1116923,21.8793846 C18.9527692,21.8173846 18.8741538,21.6381538 18.9361538,21.4793077 L21.1714615,15.7493846 C21.2336923,15.5904615 21.4124615,15.5115385 21.5716923,15.5737692 C21.7306154,15.6358462 21.8093077,15.815 21.7472308,15.974 L19.5118462,21.7038462 C19.4641538,21.826 19.3476154,21.9006923 19.2238462,21.9006923" id="Fill-90" fill="#000000"></path>
            <path d="M20.6006923,21.9005385 C20.5152308,21.9005385 20.4303077,21.8653846 20.3692308,21.7964615 C20.2560769,21.6686923 20.2678462,21.4734615 20.3956923,21.3603077 L22.9998462,19.054 L22.647,17.8967692 C22.6010769,17.7465385 22.6753077,17.5858462 22.8193846,17.5233077 L23.904,17.0518462 L23.0908462,14.7052308 C23.0795385,14.6727692 23.0737692,14.6385385 23.0737692,14.6040769 C23.0737692,14.4334615 23.2121538,14.2943846 23.3828462,14.2943846 C23.5245385,14.2943846 23.6440769,14.3893077 23.6804615,14.5193846 L24.5816154,17.1199231 C24.6345385,17.2725385 24.5609231,17.4400769 24.4126923,17.5045385 L23.3185385,17.9801538 L23.6489231,19.0636154 C23.6842308,19.1792308 23.6487692,19.3048462 23.5582308,19.385 L20.8053846,21.8228462 C20.7465385,21.8748462 20.6733846,21.9005385 20.6006923,21.9005385" id="Fill-91" fill="#000000"></path>
            <path d="M20.809,17.8576154 L17.5586154,17.8576154 C17.3879231,17.8576154 17.2496154,17.7193077 17.2496154,17.5486154 C17.2496154,17.378 17.3879231,17.2396923 17.5586154,17.2396923 L20.8013077,17.2396923 C20.9719231,17.2396923 21.1141538,17.378 21.1141538,17.5486154 C21.1141538,17.7193077 20.9796154,17.8576154 20.809,17.8576154" id="Fill-92" fill="#000000"></path>
            <path d="M11.1752308,13.5844615 C11.0046154,13.5844615 10.8662308,13.4461538 10.8662308,13.2754615 L10.8662308,10.7403077 C10.8662308,10.5696923 11.0046154,10.4313846 11.1752308,10.4313846 C11.3458462,10.4313846 11.4841538,10.5696923 11.4841538,10.7403077 L11.4841538,13.2754615 C11.4841538,13.4461538 11.3458462,13.5844615 11.1752308,13.5844615" id="Fill-93" fill="#000000"></path>
            <path d="M32.4655385,20.8854615 C32.3406154,20.8854615 32.2377692,20.7860769 32.2340769,20.6603846 L32.1276154,16.9573846 C32.1237692,16.8294615 32.2246154,16.7227692 32.3525385,16.7191538 C32.4780769,16.7150769 32.587,16.8161538 32.5907692,16.9441538 L32.6972308,20.6471538 C32.701,20.7750769 32.6003077,20.8816923 32.4723846,20.8853077 C32.47,20.8854615 32.4677692,20.8854615 32.4655385,20.8854615" id="Fill-97" fill="#FFFFFF"></path>
            <g id="Group-104" transform="translate(6.076923, 23.692308)">
                <path d="M7.26146154,5.60807692 L18.6802308,5.60807692 L18.6802308,3.14861538 L7.26146154,3.14861538 L7.26146154,5.60807692 Z M25.5973846,0.608923077 L24.0545385,13.782 L1.88723077,13.782 L0.344538462,0.608923077 L25.5973846,0.608923077 L25.5973846,0.608923077 Z" id="Fill-98" fill="#E8965B"></path>
                <polyline id="Fill-100" fill="#A26940" points="25.5973846 0.608923077 24.0545385 13.782 22.8786923 13.782 24.2406154 2.15376923 0.525461538 2.15376923 0.344538462 0.608923077 25.5973846 0.608923077"></polyline>
                <path d="M2.16207692,13.4730769 L23.7796923,13.4730769 L25.25,0.917923077 L0.691846154,0.917923077 L2.16207692,13.4730769 Z M24.0545385,14.091 L1.88723077,14.091 C1.73046154,14.091 1.59853846,13.9736154 1.58038462,13.8179231 L0.0376923077,0.644846154 C0.0273846154,0.557384615 0.0551538462,0.469384615 0.113769231,0.403615385 C0.172307692,0.337692308 0.256384615,0.3 0.344538462,0.3 L25.5973846,0.3 C25.6855385,0.3 25.7694615,0.337692308 25.8281538,0.403615385 C25.8868462,0.469384615 25.9144615,0.557384615 25.9041538,0.644846154 L24.3613846,13.8179231 C24.3431538,13.9736154 24.2113077,14.091 24.0545385,14.091 L24.0545385,14.091 Z" id="Fill-101" fill="#000000"></path>
                <polygon id="Fill-102" fill="#FFDA7E" points="6.47007692 5.60807692 19.4716923 5.60807692 19.4716923 3.14861538 6.47007692 3.14861538"></polygon>
                <path d="M6.77907692,5.29907692 L19.1626923,5.29907692 L19.1626923,3.45761538 L6.77907692,3.45761538 L6.77907692,5.29907692 Z M19.4716923,5.917 L6.47007692,5.917 C6.29946154,5.917 6.16115385,5.77869231 6.16115385,5.60807692 L6.16115385,3.14861538 C6.16115385,2.978 6.29946154,2.83961538 6.47007692,2.83961538 L19.4716923,2.83961538 C19.6423846,2.83961538 19.7806154,2.978 19.7806154,3.14861538 L19.7806154,5.60807692 C19.7806154,5.77869231 19.6423846,5.917 19.4716923,5.917 L19.4716923,5.917 Z" id="Fill-103" fill="#000000"></path>
            </g>
        </g>
    </g>
</svg>