<?xml version="1.0" encoding="UTF-8"?>
<svg width="40px" height="40px" viewBox="0 0 40 40" version="1.1" xmlns="http://www.w3.org/2000/svg" xmlns:xlink="http://www.w3.org/1999/xlink">
    <title>Liderazgo_40x40</title>
    <g id="Liderazgo_40x40" stroke="none" stroke-width="1" fill="none" fill-rule="evenodd">
        <g id="shutterstock_477048094" transform="translate(0.000000, 1.230185)">
            <path d="M21.8648042,29.3832548 C21.8648042,29.3832548 21.8648042,25.9556633 21.8648042,24.1408754 C30.2691217,20.8142761 33.5209312,10.5309899 33.5209312,0.852974186 L7.13430688,0.852974186 C7.13430688,10.5309899 10.3861164,20.8142761 18.7904339,24.1408754 C18.7904339,25.9556633 18.7904339,29.3832548 18.7904339,29.3832548 L21.8648042,29.3832548" id="Fill-10" fill="#F1DD45"></path>
            <path d="M20.1606772,29.3832548 L21.8648042,29.3832548 C21.8648042,29.3832548 21.8648042,25.9556633 21.8648042,24.1408754 C30.2691217,20.8142761 33.5209312,10.5309899 33.5209312,0.852974186 L20.1606772,0.852974186 L20.1606772,29.3832548" id="Fill-11" fill="#EFCF46"></path>
            <path d="M32.4102434,0.852974186 C32.4102434,10.5309899 28.5649947,18.3024377 20.1606772,21.629037 C20.1606772,23.4439955 20.1606772,29.3832548 20.1606772,29.3832548 L21.8648042,29.3832548 C21.8648042,29.3832548 21.8648042,25.9556633 21.8648042,24.1408754 C30.2691217,20.8142761 33.5209312,10.5309899 33.5209312,0.852974186 L32.4102434,0.852974186" id="Fill-12" fill="#DBA93C"></path>
            <path d="M18.3383704,20.2139529 C15.7837884,18.687982 13.8013122,16.1338361 12.4464762,12.6224826 C12.2637884,12.1489113 11.7345185,11.9143434 11.2646772,12.0984153 C10.7946667,12.2824871 10.5618624,12.815596 10.7445503,13.2891672 C12.2510899,17.1932301 14.4927831,20.0556409 17.4071534,21.7965612 C17.8409312,22.0555241 18.4010159,21.9112009 18.6580317,21.4744781 C18.9152169,21.0374141 18.7721481,20.4730864 18.3383704,20.2139529" id="Fill-13" fill="#F4F090"></path>
            <path d="M11.629037,10.1113266 C11.3649101,9.13688889 11.1412487,8.10581369 10.9646561,7.04676094 C10.8810159,6.54572391 10.4101587,6.20777553 9.91288889,6.29204938 C9.41561905,6.37615264 9.08021164,6.85057688 9.16402116,7.35178451 C9.35060317,8.47105724 9.5874709,9.5626936 9.86751323,10.5961571 C10.0004233,11.0862761 10.5024339,11.3749226 10.9888677,11.2411762 C11.4753016,11.1072593 11.7617778,10.6016162 11.629037,10.1113266" id="Fill-14" fill="#F4F090"></path>
            <polygon id="Fill-15" fill="#95795C" points="12.6709841 37.2283996 27.984254 37.2283996 27.984254 29.3832548 12.6709841 29.3832548"></polygon>
            <polyline id="Fill-16" fill="#6C563F" points="27.984254 29.3832548 27.984254 37.2283996 20.1982646 37.2283996 27.984254 29.3832548"></polyline>
            <polygon id="Fill-17" fill="#FFFFFE" points="17.3399365 34.5997037 23.3716825 34.5997037 23.3716825 32.0358339 17.3399365 32.0358339"></polygon>
            <path d="M12.6709841,37.5695892 L27.984254,37.5695892 C28.1713439,37.5695892 28.3228783,37.4167363 28.3228783,37.2283996 L28.3228783,29.3832548 C28.3228783,29.1949181 28.1713439,29.0420651 27.984254,29.0420651 L12.6709841,29.0420651 C12.4840635,29.0420651 12.3323598,29.1949181 12.3323598,29.3832548 L12.3323598,37.2283996 C12.3323598,37.4167363 12.4840635,37.5695892 12.6709841,37.5695892 Z M12.6709841,29.7244444 L27.984254,29.7244444 C27.7973333,29.7244444 27.6456296,29.5717621 27.6456296,29.3832548 L27.6456296,37.2283996 C27.6456296,37.0398923 27.7973333,36.8872099 27.984254,36.8872099 L12.6709841,36.8872099 C12.8580741,36.8872099 13.0096085,37.0398923 13.0096085,37.2283996 L13.0096085,29.3832548 C13.0096085,29.5717621 12.8580741,29.7244444 12.6709841,29.7244444 L12.6709841,29.7244444 Z" id="Fill-21" fill="#090C0E"></path>
            <path d="M17.3399365,34.9164983 L23.3154709,34.9164983 C23.5025608,34.9164983 23.6540952,34.7636453 23.6540952,34.5753086 L23.6540952,32.0358339 C23.6540952,31.8474972 23.5025608,31.6946442 23.3154709,31.6946442 L17.3399365,31.6946442 C17.1528466,31.6946442 17.0013122,31.8474972 17.0013122,32.0358339 L17.0013122,34.5753086 C17.0013122,34.7636453 17.1528466,34.9164983 17.3399365,34.9164983 Z M17.3399365,32.3770236 L23.3154709,32.3770236 C23.1285503,32.3770236 22.9768466,32.2243412 22.9768466,32.0358339 L22.9768466,34.5753086 C22.9768466,34.3868013 23.1285503,34.234119 23.3154709,34.234119 L17.3399365,34.234119 C17.5268571,34.234119 17.6785608,34.3868013 17.6785608,34.5753086 L17.6785608,32.0358339 C17.6785608,32.2243412 17.5268571,32.3770236 17.3399365,32.3770236 L17.3399365,32.3770236 Z" id="Fill-22" fill="#090C0E"></path>
            <path d="M19.1290582,29.3832548 L19.1290582,24.1408754 C19.1290582,24.0006465 19.0438942,23.8745769 18.9143704,23.8232278 C15.0818201,22.3062985 12.1229206,19.250092 10.1199577,14.7393939 C8.3882328,10.8399371 7.47293122,6.03820426 7.47293122,0.852974186 C7.47293122,1.04131089 7.32139683,1.19416386 7.13430688,1.19416386 L33.5209312,1.19416386 C33.3340106,1.19416386 33.1823069,1.04131089 33.1823069,0.852974186 C33.1823069,6.03820426 32.2670053,10.8399371 30.5354497,14.7393939 C28.5324868,19.250092 25.5735873,22.3062985 21.741037,23.8232278 C21.6115132,23.8745769 21.5261799,24.0006465 21.5261799,24.1408754 L21.5261799,29.3832548 C21.5261799,29.5717621 21.6778836,29.7244444 21.8648042,29.7244444 C22.0518942,29.7244444 22.2034286,29.5717621 22.2034286,29.3832548 L22.2034286,24.1408754 C22.2034286,24.2811044 22.1182646,24.4070034 21.9887407,24.4583524 C25.992127,22.873697 29.0756402,19.6975623 31.1536085,15.0181459 C32.9239365,11.0316857 33.8595556,6.13339618 33.8595556,0.852974186 C33.8595556,0.664637486 33.7080212,0.511784512 33.5209312,0.511784512 L7.13430688,0.511784512 C6.94738624,0.511784512 6.79568254,0.664637486 6.79568254,0.852974186 C6.79568254,6.13339618 7.7314709,11.0316857 9.50162963,15.0181459 C11.5797672,19.6975623 14.6632804,22.8738676 18.6666667,24.4583524 C18.5371429,24.4070034 18.4518095,24.2811044 18.4518095,24.1408754 L18.4518095,29.3832548 C18.4518095,29.5717621 18.6035132,29.7244444 18.7904339,29.7244444 C18.9775238,29.7244444 19.1290582,29.5717621 19.1290582,29.3832548" id="Fill-23" fill="#090C0E"></path>
            <path d="M7.28939683,4.14084848 L1.18078307,4.14084848 C0.993862434,4.14084848 0.84215873,4.29370146 0.84215873,4.48203816 C0.84215873,10.9934725 6.51005291,17.2920045 11.5777354,18.5733423 C11.7590688,18.6194029 11.9431111,18.5083457 11.9886561,18.3256386 C12.0340317,18.1427609 11.9239788,17.9574949 11.7424762,17.9116049 C6.91674074,16.6913401 1.51940741,10.6887901 1.51940741,4.48203816 C1.51940741,4.67054545 1.36787302,4.82322783 1.18078307,4.82322783 L7.28939683,4.82322783 C7.47648677,4.82322783 7.62802116,4.67054545 7.62802116,4.48203816 C7.62802116,4.29370146 7.47648677,4.14084848 7.28939683,4.14084848" id="Fill-24" fill="#090C0E"></path>
            <path d="M33.3658413,4.82322783 L39.474455,4.82322783 C39.2873651,4.82322783 39.1358307,4.67054545 39.1358307,4.48203816 C39.1358307,10.6887901 33.7386667,16.6913401 28.9129312,17.9116049 C28.7314286,17.9574949 28.6213757,18.1427609 28.6669206,18.3256386 C28.7124656,18.5083457 28.8963386,18.6194029 29.0778413,18.5733423 C34.1453545,17.2920045 39.8130794,10.9934725 39.8130794,4.48203816 C39.8130794,4.29370146 39.6613757,4.14084848 39.474455,4.14084848 L33.3658413,4.14084848 C33.1789206,4.14084848 33.0272169,4.29370146 33.0272169,4.48203816 C33.0272169,4.67054545 33.1789206,4.82322783 33.3658413,4.82322783" id="Fill-25" fill="#090C0E"></path>
        </g>
    </g>
</svg>