<?xml version="1.0" encoding="UTF-8"?>
<svg width="40px" height="40px" viewBox="0 0 40 40" version="1.1" xmlns="http://www.w3.org/2000/svg" xmlns:xlink="http://www.w3.org/1999/xlink">
    <title>PensamientoCritico_40x40</title>
    <g id="PensamientoCritico_40x40" stroke="none" stroke-width="1" fill="none" fill-rule="evenodd">
        <g id="Group-25" transform="translate(7.000000, 0.585818)">
            <path d="M2.37725262,7.53735303 C2.70571505,6.95046235 2.67942081,6.29522794 2.7713788,5.59910667 C2.83732992,5.08041051 3.1919429,4.47994062 3.56020589,4.11136194 C3.91481887,3.72920404 4.49314839,3.36077458 4.99245152,3.29243084 C5.6628827,3.19692867 6.29380069,3.22423633 6.85876757,2.88311452 C7.42387812,2.54169426 7.72633369,1.95480359 8.1467541,1.39522057 C8.44920966,0.98575502 9.04047077,0.658212425 9.53991758,0.521524946 C10.0393644,0.385285133 10.7096519,0.357977482 11.1697292,0.562561034 C11.8003598,0.822058334 12.3391761,1.17690858 12.9963884,1.17690858 C13.6534569,1.17690858 14.1922732,0.822058334 14.8233349,0.562561034 C15.2834122,0.357977482 15.953556,0.385285133 16.4530028,0.521524946 C16.9523059,0.658212425 17.5437107,0.98575502 17.8461663,1.39522057 C18.2667304,1.95480359 18.5687549,2.54169426 19.1342965,2.88311452 C19.6992634,3.22423633 20.3300377,3.19692867 21.0132568,3.29243084 C21.4994846,3.36077458 22.0782452,3.72920404 22.4459335,4.11136194 C22.8008338,4.47994062 23.1558779,5.08041051 23.2215416,5.59910667 C23.3133559,6.29522794 23.3002806,6.95046235 23.6158115,7.53735303 C23.9441302,8.1242437 24.5092408,8.43805786 25.0483445,8.87498028 C25.442327,9.18879444 25.7578578,9.80314198 25.8891853,10.3218381 C26.0341628,10.8405343 26.0472381,11.5366556 25.8498158,12.0141664 C25.6003797,12.6694008 25.2585547,13.2289838 25.2585547,13.9115259 C25.2585547,14.594068 25.6003797,15.153651 25.8498158,15.8087362 C26.0472381,16.2863963 26.0341628,16.9826668 25.9024043,17.5012137 C25.7578578,18.0199098 25.442327,18.6341082 25.0483445,18.9480715 C24.5092408,19.3846955 23.9441302,19.6988081 23.6158115,20.2856988 C23.3002806,20.8725895 23.3133559,21.5275254 23.2215416,22.2375244 C23.1558779,22.7426413 22.8008338,23.3431112 22.4459335,23.7254183 C22.0782452,24.0935493 21.4994846,24.4622772 21.0132568,24.5304718 C20.3300377,24.6258247 19.6992634,24.5986663 19.1342965,24.9400865 C18.5687549,25.2813576 18.2667304,25.8682482 17.8461663,26.4278313 C17.5437107,26.837446 16.9523059,27.1646902 16.4530028,27.3015269 C15.953556,27.4514951 15.2834122,27.4650743 14.8233349,27.26064 C14.1922732,27.0009935 13.6534569,26.645994 12.9963884,26.645994 C12.3391761,26.645994 11.8003598,27.0009935 11.1697292,27.26064 C10.7096519,27.4650743 10.0393644,27.4514951 9.53991758,27.3015269 C9.04047077,27.1646902 8.44920966,26.837446 8.1467541,26.4278313 C7.72633369,25.8682482 7.42387812,25.2813576 6.85876757,24.9400865 C6.29380069,24.5986663 5.6628827,24.6258247 4.99245152,24.5304718 C4.49314839,24.4622772 3.91481887,24.0935493 3.56020589,23.7254183 C3.1919429,23.3431112 2.83732992,22.7426413 2.7713788,22.2375244 C2.67942081,21.5275254 2.70571505,20.8725895 2.37725262,20.2856988 C2.04850282,19.6988081 1.48353595,19.3846955 0.944575942,18.9480715 C0.55030608,18.6341082 0.234918926,18.0199098 0.103591428,17.5012137 C-0.0278797539,16.9826668 -0.0541739904,16.2863963 0.142960941,15.8087362 C0.392684345,15.153651 0.734365735,14.594068 0.734365735,13.9115259 C0.734365735,13.2289838 0.392684345,12.6694008 0.142960941,12.0141664 C-0.0541739904,11.5366556 -0.0278797539,10.8405343 0.103591428,10.3218381 C0.234918926,9.80314198 0.55030608,9.18879444 0.944575942,8.87498028 C1.48353595,8.43805786 2.04850282,8.1242437 2.37725262,7.53735303" id="Fill-1" fill="#22B573"></path>
            <path d="M2.37725262,7.53735303 C2.70571505,6.95046235 2.67942081,6.29522794 2.7713788,5.59910667 C2.83732992,5.08041051 3.1919429,4.47994062 3.56020589,4.11136194 C3.91481887,3.72920404 4.49314839,3.36077458 4.99245152,3.29243084 C5.6628827,3.19692867 6.29380069,3.22423633 6.85876757,2.88311452 C7.42387812,2.54169426 7.72633369,1.95480359 8.1467541,1.39522057 C8.44920966,0.98575502 9.04047077,0.658212425 9.53991758,0.521524946 C10.0393644,0.385285133 10.7096519,0.357977482 11.1697292,0.562561034 C11.8003598,0.822058334 12.3391761,1.17690858 12.9963884,1.17690858 C13.6534569,1.17690858 14.1922732,0.822058334 14.8233349,0.562561034 C15.2834122,0.357977482 15.953556,0.385285133 16.4530028,0.521524946 C16.9523059,0.658212425 17.5437107,0.98575502 17.8461663,1.39522057 C18.2667304,1.95480359 18.5687549,2.54169426 19.1342965,2.88311452 C19.6992634,3.22423633 20.3300377,3.19692867 21.0132568,3.29243084 C21.4994846,3.36077458 22.0782452,3.72920404 22.4459335,4.11136194 C22.8008338,4.47994062 23.1558779,5.08041051 23.2215416,5.59910667 C23.3133559,6.29522794 23.3002806,6.95046235 23.6158115,7.53735303 C23.9441302,8.1242437 24.5092408,8.43805786 25.0483445,8.87498028 C25.442327,9.18879444 25.7578578,9.80314198 25.8891853,10.3218381 C26.0341628,10.8405343 26.0472381,11.5366556 25.8498158,12.0141664 C25.6003797,12.6694008 25.2585547,13.2289838 25.2585547,13.9115259 C25.2585547,14.594068 25.6003797,15.153651 25.8498158,15.8087362 C26.0472381,16.2863963 26.0341628,16.9826668 25.9024043,17.5012137 C25.7578578,18.0199098 25.442327,18.6341082 25.0483445,18.9480715 C24.5092408,19.3846955 23.9441302,19.6988081 23.6158115,20.2856988 C23.3002806,20.8725895 23.3133559,21.5275254 23.2215416,22.2375244 C23.1558779,22.7426413 22.8008338,23.3431112 22.4459335,23.7254183 C22.0782452,24.0935493 21.4994846,24.4622772 21.0132568,24.5304718 C20.3300377,24.6258247 19.6992634,24.5986663 19.1342965,24.9400865 C18.5687549,25.2813576 18.2667304,25.8682482 17.8461663,26.4278313 C17.5437107,26.837446 16.9523059,27.1646902 16.4530028,27.3015269 C15.953556,27.4514951 15.2834122,27.4650743 14.8233349,27.26064 C14.1922732,27.0009935 13.6534569,26.645994 12.9963884,26.645994 C12.3391761,26.645994 11.8003598,27.0009935 11.1697292,27.26064 C10.7096519,27.4650743 10.0393644,27.4514951 9.53991758,27.3015269 C9.04047077,27.1646902 8.44920966,26.837446 8.1467541,26.4278313 C7.72633369,25.8682482 7.42387812,25.2813576 6.85876757,24.9400865 C6.29380069,24.5986663 5.6628827,24.6258247 4.99245152,24.5304718 C4.49314839,24.4622772 3.91481887,24.0935493 3.56020589,23.7254183 C3.1919429,23.3431112 2.83732992,22.7426413 2.7713788,22.2375244 C2.67942081,21.5275254 2.70571505,20.8725895 2.37725262,20.2856988 C2.04850282,19.6988081 1.48353595,19.3846955 0.944575942,18.9480715 C0.55030608,18.6341082 0.234918926,18.0199098 0.103591428,17.5012137 C-0.0278797539,16.9826668 -0.0541739904,16.2863963 0.142960941,15.8087362 C0.392684345,15.153651 0.734365735,14.594068 0.734365735,13.9115259 C0.734365735,13.2289838 0.392684345,12.6694008 0.142960941,12.0141664 C-0.0541739904,11.5366556 -0.0278797539,10.8405343 0.103591428,10.3218381 C0.234918926,9.80314198 0.55030608,9.18879444 0.944575942,8.87498028 C1.48353595,8.43805786 2.04850282,8.1242437 2.37725262,7.53735303 Z" id="Stroke-3" stroke="#000000" stroke-width="0.75"></path>
            <path d="M23,13.9141823 C23,19.1608768 18.7467365,23.4141823 13.5000722,23.4141823 C8.25326349,23.4141823 4,19.1608768 4,13.9141823 C4,8.66748773 8.25326349,4.41418226 13.5000722,4.41418226 C18.7467365,4.41418226 23,8.66748773 23,13.9141823" id="Fill-5" fill="#006837"></path>
            <path d="M23,13.9141823 C23,19.1608768 18.7467365,23.4141823 13.5000722,23.4141823 C8.25326349,23.4141823 4,19.1608768 4,13.9141823 C4,8.66748773 8.25326349,4.41418226 13.5000722,4.41418226 C18.7467365,4.41418226 23,8.66748773 23,13.9141823 Z" id="Stroke-7" stroke="#000000" stroke-width="0.75"></path>
            <path d="M13.5,4.41418226 C18.7447993,4.41418226 23,8.66915593 23,13.9143285 C23,19.1595012 18.7447993,23.4141823 13.5,23.4141823 C8.25490815,23.4141823 4,19.1595012 4,13.9143285 C4,8.66915593 8.25490815,4.41418226 13.5,4.41418226" id="Fill-9" fill="#006837"></path>
            <path d="M13.5,4.41418226 C18.7447993,4.41418226 23,8.66915593 23,13.9143285 C23,19.1595012 18.7447993,23.4141823 13.5,23.4141823 C8.25490815,23.4141823 4,19.1595012 4,13.9143285 C4,8.66915593 8.25490815,4.41418226 13.5,4.41418226 Z" id="Stroke-11" stroke="#000000" stroke-width="0.75"></path>
            <path d="M14,33.0029099 L15.4277276,37.8205989 C15.6736417,38.652277 16.0427819,38.544888 16.3505781,37.900994 L18.184037,34.1032074 C18.3069941,33.8618755 18.4668113,33.808181 18.6885106,33.9289203 L22.2196915,35.8211384 C22.8106656,36.1428654 23.1671603,35.9954255 22.9212462,35.1636007 L20.3125121,26.4141823 C20.0665981,26.4410295 19.8326568,26.4945773 19.7096998,26.5751191 C19.4388983,26.7498463 19.0572472,27.4072374 18.8605698,27.6892069 C18.4053328,28.3332477 17.6176813,28.8163516 16.9042883,29.0308362 C16.36282,29.1922132 15.7351202,29.2324107 15.1567917,29.1112313 L14,33.0029099 Z" id="Fill-13" fill="#FFFF00"></path>
            <path d="M14,33.0029099 L15.4277276,37.8205989 C15.6736417,38.652277 16.0427819,38.544888 16.3505781,37.900994 L18.184037,34.1032074 C18.3069941,33.8618755 18.4668113,33.808181 18.6885106,33.9289203 L22.2196915,35.8211384 C22.8106656,36.1428654 23.1671603,35.9954255 22.9212462,35.1636007 L20.3125121,26.4141823 C20.0665981,26.4410295 19.8326568,26.4945773 19.7096998,26.5751191 C19.4388983,26.7498463 19.0572472,27.4072374 18.8605698,27.6892069 C18.4053328,28.3332477 17.6176813,28.8163516 16.9042883,29.0308362 C16.36282,29.1922132 15.7351202,29.2324107 15.1567917,29.1112313 L14,33.0029099 Z" id="Stroke-15" stroke="#000000" stroke-width="0.75"></path>
            <path d="M11.5845064,36.8149755 L14,28.6565727 C13.7536943,28.5481819 13.5071191,28.4402341 13.3470474,28.4402341 C13.0388957,28.4402341 12.3980698,28.8185683 12.1023143,28.95354 C11.4121732,29.2643883 10.5123759,29.2643883 9.78504652,29.0480497 C9.07024797,28.8320064 8.2816116,28.3457244 7.82564963,27.6975945 C7.62838948,27.4272082 7.24640006,26.7519068 6.97516736,26.5760301 C6.8520145,26.4951062 6.61783545,26.4412061 6.37139501,26.4141823 L4.07891951,34.1536412 C3.83247907,34.9777954 4.18981097,35.139791 4.78145667,34.8159476 L8.31853051,32.8976958 C8.54031343,32.7763099 8.7130508,32.8437958 8.82380752,33.0731295 L10.6601863,36.9094852 C10.9684727,37.544177 11.3380659,37.6521248 11.5845064,36.8149755" id="Fill-17" fill="#FFFF00"></path>
            <path d="M11.5845064,36.8149755 L14,28.6565727 C13.7536943,28.5481819 13.5071191,28.4402341 13.3470474,28.4402341 C13.0388957,28.4402341 12.3980698,28.8185683 12.1023143,28.95354 C11.4121732,29.2643883 10.5123759,29.2643883 9.78504652,29.0480497 C9.07024797,28.8320064 8.2816116,28.3457244 7.82564963,27.6975945 C7.62838948,27.4272082 7.24640006,26.7519068 6.97516736,26.5760301 C6.8520145,26.4951062 6.61783545,26.4412061 6.37139501,26.4141823 L4.07891951,34.1536412 C3.83247907,34.9777954 4.18981097,35.139791 4.78145667,34.8159476 L8.31853051,32.8976958 C8.54031343,32.7763099 8.7130508,32.8437958 8.82380752,33.0731295 L10.6601863,36.9094852 C10.9684727,37.544177 11.3380659,37.6521248 11.5845064,36.8149755 Z" id="Stroke-19" stroke="#000000" stroke-width="0.75"></path>
            <path d="M16.266435,9.94316204 L11.6000402,15.1618741 L9.73356505,13.0743276 C9.11572688,12.3690212 8.09403958,12.3690212 7.46337862,13.0743276 C6.84554046,13.7794798 6.84554046,14.9220946 7.46337862,15.6130605 L10.4650159,18.9699734 C10.994887,19.5622519 12.2056071,19.5622519 12.7352024,18.9699734 L18.5366214,12.4820491 C19.1544595,11.7767427 19.1544595,10.6341279 18.5366214,9.94316204 C17.9058225,9.23785567 16.8842731,9.23785567 16.266435,9.94316204" id="Fill-21" fill="#FFFF00"></path>
            <path d="M16.266435,9.94316204 L11.6000402,15.1618741 L9.73356505,13.0743276 C9.11572688,12.3690212 8.09403958,12.3690212 7.46337862,13.0743276 C6.84554046,13.7794798 6.84554046,14.9220946 7.46337862,15.6130605 L10.4650159,18.9699734 C10.994887,19.5622519 12.2056071,19.5622519 12.7352024,18.9699734 L18.5366214,12.4820491 C19.1544595,11.7767427 19.1544595,10.6341279 18.5366214,9.94316204 C17.9058225,9.23785567 16.8842731,9.23785567 16.266435,9.94316204 Z" id="Stroke-23" stroke="#000000" stroke-width="0.75"></path>
        </g>
    </g>
</svg>